<svg width="783" height="667" viewBox="0 0 783 667" fill="none" xmlns="http://www.w3.org/2000/svg">
<path d="M595.803 351.201C595.803 388.69 595.803 426.179 595.803 463.669C595.803 465.143 597.986 465.248 597.986 463.669C597.986 426.179 597.986 388.69 597.986 351.201C597.986 349.621 595.803 349.621 595.803 351.201Z" fill="#E8E8E8"/>
<path d="M597.511 353.201C654.926 352.464 712.246 351.622 769.661 350.885C770.99 350.885 771.085 348.463 769.661 348.463C712.246 349.2 654.926 350.042 597.511 350.779C596.182 350.779 596.182 353.201 597.511 353.201Z" fill="#E8E8E8"/>
<path d="M597.226 465.038C611.366 465.038 625.507 465.038 639.552 465.038C640.881 465.038 640.975 462.616 639.552 462.616C625.412 462.616 611.271 462.616 597.226 462.616C595.898 462.721 595.898 465.038 597.226 465.038Z" fill="#E8E8E8"/>
<path d="M639.647 414.174C641.165 431.129 642.304 448.083 642.779 465.143C643.158 479.886 643.253 494.418 644.582 509.056C645.341 517.691 645.721 526.327 645.721 534.962C645.721 539.806 646.29 544.755 647.239 549.494C648.378 554.654 649.896 561.604 653.977 564.974C657.678 568.134 662.708 568.028 667.073 566.554C668.402 566.133 667.832 563.816 666.504 564.237C659.291 566.659 653.977 563.711 651.32 556.129C649.232 550.126 647.998 543.386 647.808 536.857C647.714 531.171 647.903 525.484 647.619 519.798C647.049 511.478 646.1 503.264 645.531 494.945C644.772 483.045 645.151 471.04 644.772 459.035C644.202 443.976 643.158 429.023 641.83 413.964C641.64 412.595 639.552 412.595 639.647 414.174Z" fill="#E8E8E8"/>
<path d="M641.545 417.755C642.019 413.016 643.348 409.225 647.903 407.645C651.035 406.592 654.356 407.013 657.583 407.329C658.912 407.435 658.912 405.118 657.583 404.907C653.123 404.381 648.188 403.959 644.202 406.803C640.691 409.33 639.837 413.226 639.457 417.544C639.267 419.334 641.355 419.334 641.545 417.755Z" fill="#E8E8E8"/>
<path d="M674.381 405.644C669.446 403.328 660.999 399.958 656.919 405.96C654.356 409.751 654.831 416.07 654.736 420.598C654.451 434.709 655.4 448.82 656.349 462.826C658.342 491.575 661.854 520.113 663.562 548.862C663.752 552.969 663.277 557.708 664.131 561.71C666.314 570.871 676.184 567.607 681.783 564.974C683.016 564.448 682.447 562.131 681.213 562.658C678.177 564.027 672.577 566.975 669.256 565.08C665.839 563.079 665.934 559.498 665.934 555.918C665.934 552.548 665.745 549.178 665.46 545.808C664.701 534.856 663.657 523.904 662.708 512.952C660.335 486.31 657.583 459.667 656.919 432.919C656.824 427.338 656.729 421.862 657.014 416.28C657.203 413.121 657.109 409.435 659.196 407.013C662.898 402.801 669.636 405.96 673.811 407.856C675.045 408.488 675.614 406.276 674.381 405.644Z" fill="#E8E8E8"/>
<path d="M686.243 563.5C680.644 564.764 681.403 551.284 681.024 548.23C680.454 543.808 679.79 539.385 679.126 535.067C677.892 526.853 677.892 518.639 677.512 510.32C677.133 500.21 675.899 490.101 675.709 479.991C675.424 468.513 675.899 457.14 674.95 445.766C674.381 437.658 673.906 429.444 673.526 421.23C673.147 413.542 675.709 399.958 685.294 404.486C686.528 405.118 687.667 403.012 686.338 402.485C676.373 397.746 671.818 408.382 671.344 417.965C670.964 425.442 672.103 433.34 672.483 440.922C672.767 446.082 673.337 451.242 673.337 456.402C673.432 468.829 673.147 481.36 674.096 493.787C674.855 504.528 674.95 515.375 675.804 526.011C676.563 535.804 678.936 545.387 679.41 555.286C679.695 560.235 680.739 567.186 686.718 565.922C688.141 565.396 687.572 563.184 686.243 563.5Z" fill="#E8E8E8"/>
<path d="M685.674 404.697C691.653 401.959 694.215 409.436 694.499 414.596C694.594 416.175 694.784 418.703 693.361 419.756C692.601 420.282 691.083 419.861 690.229 420.282C686.338 421.967 687.477 426.917 687.382 430.813C687.097 447.557 687.002 464.301 687.002 481.044C687.097 497.788 687.287 514.532 687.667 531.276C687.762 535.488 686.623 541.912 689.849 545.177C692.507 547.809 695.164 549.178 695.448 553.706C695.733 559.604 691.273 563.289 686.338 563.184C685.009 563.184 685.009 565.501 686.338 565.606C691.368 565.712 696.303 562.342 697.441 556.655C697.916 554.233 697.536 551.706 696.587 549.494C695.449 546.756 693.74 546.124 691.937 544.123C688.711 540.543 689.754 532.013 689.66 527.38C689.565 521.798 689.47 516.217 689.375 510.636C689.185 500.21 689.09 489.68 689.09 479.254C689.09 468.829 689.09 458.298 689.185 447.873C689.28 442.291 689.28 436.71 689.375 431.129C689.375 429.339 688.995 426.495 689.47 424.81C690.419 421.756 691.842 423.125 693.74 422.283C697.916 420.493 696.872 413.753 695.923 409.857C694.594 404.591 690.039 400.379 685.009 402.696C683.871 403.012 684.44 405.329 685.674 404.697Z" fill="#E8E8E8"/>
<path d="M769.471 350.779C769.471 383.319 769.471 415.859 769.471 448.399C769.471 449.873 771.654 449.979 771.654 448.399C771.654 415.859 771.654 383.319 771.654 350.779C771.654 349.305 769.471 349.305 769.471 350.779Z" fill="#E8E8E8"/>
<path d="M688.141 465.669C715.473 465.669 742.899 465.669 770.23 465.669C771.559 465.669 771.654 463.247 770.23 463.247C742.899 463.247 715.473 463.247 688.141 463.247C686.718 463.353 686.718 465.669 688.141 465.669Z" fill="#E8E8E8"/>
<path d="M769.471 447.136C769.471 452.822 769.471 458.403 769.471 464.09C769.471 465.564 771.654 465.67 771.654 464.09C771.654 458.403 771.654 452.822 771.654 447.136C771.654 445.556 769.471 445.556 769.471 447.136Z" fill="#E8E8E8"/>
<path d="M704.559 359.52C704.559 367.418 704.559 375.211 704.559 383.109C704.559 384.583 706.742 384.688 706.742 383.109C706.742 375.211 706.742 367.418 706.742 359.52C706.647 357.94 704.559 357.94 704.559 359.52Z" fill="#E8E8E8"/>
<path d="M705.982 385.425C721.451 385.425 736.92 385.425 752.389 385.425C753.718 385.425 753.812 383.003 752.389 383.003C736.92 383.003 721.451 383.003 705.982 383.003C704.559 383.109 704.559 385.425 705.982 385.425Z" fill="#E8E8E8"/>
<path d="M705.223 360.678C721.072 360.678 736.92 360.678 752.769 360.678C754.097 360.678 754.192 358.256 752.769 358.256C736.92 358.256 721.072 358.256 705.223 358.256C703.8 358.256 703.8 360.678 705.223 360.678Z" fill="#E8E8E8"/>
<path d="M752.768 359.836C752.768 367.523 752.768 375.316 752.768 383.003C752.768 384.478 754.951 384.583 754.951 383.003C754.951 375.316 754.951 367.523 754.951 359.836C754.951 358.361 752.768 358.361 752.768 359.836Z" fill="#E8E8E8"/>
<path d="M710.158 368.05C714.713 368.05 719.269 368.05 723.824 368.05C725.152 368.05 725.247 365.628 723.824 365.628C719.269 365.628 714.713 365.628 710.158 365.628C708.735 365.733 708.735 368.05 710.158 368.05Z" fill="#E8E8E8"/>
<path d="M733.694 367.313C737.395 367.313 741.001 367.313 744.702 367.313C746.031 367.313 746.126 364.891 744.702 364.891C741.001 364.891 737.395 364.891 733.694 364.891C732.365 364.891 732.365 367.313 733.694 367.313Z" fill="#E8E8E8"/>
<path d="M723.729 446.925C719.933 446.082 720.502 440.291 722.59 437.868C724.868 435.236 728.664 435.446 731.036 437.868C733.314 440.291 733.124 444.292 730.941 446.714C728.664 449.347 724.014 449.242 722.59 445.451C722.021 444.082 720.028 444.713 720.502 446.082C722.305 450.716 727.62 452.296 731.321 449.452C735.212 446.398 735.971 439.869 732.46 436.183C729.043 432.498 723.254 432.708 720.407 437.026C717.845 440.922 718.13 448.083 723.16 449.242C724.488 449.558 725.058 447.241 723.729 446.925Z" fill="#E8E8E8"/>
<path d="M746.6 447.135C744.607 444.819 742.235 441.238 744.038 437.974C745.651 434.92 750.111 435.552 752.389 437.237C754.951 439.132 755.711 443.028 753.623 445.661C751.44 448.61 747.644 448.083 745.461 445.45C744.512 444.292 742.994 445.977 743.943 447.135C746.695 450.505 751.725 451.137 754.761 447.767C757.798 444.397 757.608 438.921 754.382 435.868C751.44 433.13 745.841 432.287 742.994 435.552C739.388 439.659 742.14 445.345 745.082 448.715C746.031 449.979 747.549 448.294 746.6 447.135Z" fill="#E8E8E8"/>
<path d="M603.774 361.099C603.774 387.11 603.774 413.226 603.774 439.237C603.774 440.712 605.957 440.817 605.957 439.237C605.957 413.226 605.957 387.11 605.957 361.099C605.957 359.625 603.774 359.625 603.774 361.099Z" fill="#E8E8E8"/>
<path d="M604.913 362.258C623.039 362.258 641.165 362.258 659.291 362.258C660.62 362.258 660.715 359.836 659.291 359.836C641.165 359.836 623.039 359.836 604.913 359.836C603.49 359.941 603.49 362.258 604.913 362.258Z" fill="#E8E8E8"/>
<path d="M614.213 370.366C614.118 370.051 614.308 369.524 614.593 369.313C614.973 368.997 615.447 369.208 615.732 369.629C616.301 370.577 615.067 371.104 614.403 370.577C613.264 369.735 612.22 371.736 613.359 372.578C614.498 373.42 616.111 373.21 617.155 372.262C618.294 371.104 618.294 369.313 617.44 367.944C616.491 366.681 614.878 366.26 613.644 367.207C612.41 368.155 611.936 369.945 612.6 371.42C612.79 372.051 613.644 372.157 614.024 371.841C614.403 371.63 614.498 370.998 614.213 370.366Z" fill="#E8E8E8"/>
<path d="M510.866 258.846C510.866 264.006 510.866 269.166 510.866 274.326C510.866 275.801 513.049 275.906 513.049 274.326C513.049 269.166 513.049 264.006 513.049 258.846C512.954 257.372 510.866 257.372 510.866 258.846Z" fill="#E8E8E8"/>
<path d="M512.669 259.267C590.109 259.267 667.548 259.267 744.987 259.267C746.315 259.267 746.41 256.845 744.987 256.845C667.548 256.845 590.109 256.845 512.669 256.845C511.341 256.845 511.341 259.267 512.669 259.267Z" fill="#E8E8E8"/>
<path d="M514.188 276.327C590.678 276.327 667.073 276.327 743.563 276.327C744.892 276.327 744.987 273.905 743.563 273.905C667.073 273.905 590.678 273.905 514.188 273.905C512.764 273.905 512.764 276.327 514.188 276.327Z" fill="#E8E8E8"/>
<path d="M743.943 259.689C743.943 264.533 743.943 269.482 743.943 274.326C743.943 275.801 746.125 275.906 746.125 274.326C746.125 269.482 746.125 264.533 746.125 259.689C746.125 258.214 743.943 258.214 743.943 259.689Z" fill="#E8E8E8"/>
<path d="M514.378 161.332C514.378 165.86 514.378 170.493 514.378 175.022C514.378 176.496 516.56 176.601 516.56 175.022C516.56 170.493 516.56 165.86 516.56 161.332C516.465 159.857 514.378 159.857 514.378 161.332Z" fill="#E8E8E8"/>
<path d="M516.655 163.227C592.006 163.227 667.453 163.227 742.804 163.227C744.133 163.227 744.227 160.805 742.804 160.805C667.453 160.805 592.006 160.805 516.655 160.805C515.327 160.805 515.327 163.227 516.655 163.227Z" fill="#E8E8E8"/>
<path d="M516.086 178.286C590.868 178.286 665.65 178.286 740.337 178.286C741.665 178.286 741.76 175.864 740.337 175.864C665.555 175.864 590.773 175.864 516.086 175.864C514.662 175.864 514.662 178.286 516.086 178.286Z" fill="#E8E8E8"/>
<path d="M741.76 162.701C741.76 167.229 741.76 171.862 741.76 176.391C741.76 177.865 743.943 177.97 743.943 176.391C743.943 171.862 743.943 167.229 743.943 162.701C743.943 161.226 741.76 161.121 741.76 162.701Z" fill="#E8E8E8"/>
<path d="M540.665 160.278C540.665 155.961 540.665 151.538 540.76 147.22C540.381 147.642 540.001 148.063 539.716 148.379C586.787 144.693 634.143 145.22 681.119 150.064C680.739 149.642 680.359 149.221 680.075 148.905C680.549 153.223 681.119 157.54 681.593 161.858C681.783 163.332 683.871 163.332 683.776 161.858C683.301 157.54 682.732 153.223 682.257 148.905C682.162 148.273 681.878 147.747 681.213 147.747C634.238 142.903 586.882 142.376 539.811 146.062C539.242 146.062 538.767 146.589 538.767 147.22C538.767 151.538 538.767 155.961 538.672 160.278C538.578 161.858 540.665 161.858 540.665 160.278Z" fill="#E8E8E8"/>
<path d="M583.75 144.483C584.415 142.482 584.035 140.902 584.32 139.007C585.174 134.162 588.875 133.846 592.671 133.636C598.27 133.425 603.869 133.215 609.468 133.004C621.331 132.583 633.099 132.162 644.961 131.74C656.349 131.319 667.832 130.687 679.221 130.582C685.104 130.477 691.083 130.687 696.967 131.74C701.427 132.583 702.566 135.531 703.041 140.165C703.42 143.114 703.61 146.062 703.8 149.116C704.179 148.695 704.559 148.274 704.844 147.958C696.493 148.063 688.236 147.536 679.98 146.589C678.651 146.378 678.651 148.8 679.98 149.011C688.236 149.958 696.493 150.485 704.844 150.38C705.413 150.38 705.983 149.853 705.888 149.221C705.603 144.588 705.983 136.795 703.61 132.688C701.332 128.897 695.449 129.213 691.842 128.792C676.943 127.317 661.664 128.897 646.764 129.424C631.77 129.95 616.871 130.582 601.876 131.108C598.175 131.214 594.379 131.424 590.678 131.53C588.78 131.635 586.502 131.319 584.699 132.267C580.713 134.478 582.801 140.27 581.568 143.956C581.283 145.22 583.371 145.851 583.75 144.483Z" fill="#E8E8E8"/>
<path d="M640.975 132.056C640.121 132.372 640.026 132.899 640.691 133.53C640.786 133.741 640.975 134.057 641.07 134.268C641.545 135.321 641.924 136.479 642.114 137.637C642.589 139.849 642.684 142.06 642.399 144.377C642.209 145.851 644.297 146.483 644.487 145.009C645.056 140.691 644.582 136.479 642.779 132.688C642.304 131.635 641.64 130.161 640.406 130.266C639.457 130.266 638.888 131.108 638.888 132.056C638.888 133.53 641.07 133.53 640.975 132.056Z" fill="#E8E8E8"/>
<path d="M659.861 129.845C662.708 135.11 663.182 141.113 661.189 146.905C660.715 148.379 662.803 148.905 663.277 147.536C665.46 141.218 664.89 134.478 661.759 128.686C660.999 127.317 659.196 128.581 659.861 129.845Z" fill="#E8E8E8"/>
<path d="M634.332 130.161C635.186 128.37 633.099 122.157 632.814 119.946C632.339 116.576 632.055 113.206 631.96 109.836C631.865 107.52 631.485 107.414 633.383 106.151C634.332 105.624 635.851 105.519 636.895 105.308C640.311 104.571 643.822 103.939 647.334 103.729C651.32 103.413 662.043 101.517 664.131 106.467C665.175 108.994 664.796 113.733 664.701 116.471C664.606 120.262 664.321 124.053 663.752 127.844C663.562 129.318 665.65 129.95 665.839 128.476C666.599 123.21 666.978 117.945 666.788 112.574C666.694 109.626 666.883 105.308 664.701 103.097C662.423 100.78 658.247 101.201 655.4 101.096C650.181 100.991 644.961 101.412 639.837 102.36C637.274 102.781 631.39 102.781 629.967 105.624C628.449 108.467 630.157 115.523 630.441 118.472C630.726 121.42 630.726 129.002 632.909 130.793C634.143 131.846 635.376 131.424 635.946 129.845C636.136 129.424 636.135 128.792 635.756 128.37C634.522 127.107 633.194 127.212 632.434 128.897C631.865 130.266 633.668 131.53 634.332 130.161Z" fill="#E8E8E8"/>
<path d="M636.895 102.781C636.041 98.8844 633.573 95.7252 632.245 91.9341C631.675 90.3545 631.201 88.8802 630.821 87.1953C630.726 86.6688 630.631 86.0369 630.536 85.5104C629.492 83.1936 630.157 81.614 632.339 80.8769C633.194 81.9299 634.522 80.5609 634.048 79.4026C631.296 73.5054 629.872 67.0816 630.252 60.3419C630.441 56.4456 630.252 56.5509 633.478 54.866C636.515 53.181 637.654 53.7076 640.026 56.4456C642.019 58.657 643.253 61.9216 644.202 64.7649C647.998 76.3487 649.517 89.0908 649.801 101.306C649.801 102.781 651.984 102.886 651.984 101.306C651.699 91.3023 650.466 81.4034 648.283 71.6098C646.67 64.7649 644.677 56.0244 638.793 52.128C634.522 49.39 629.967 50.8643 628.733 56.235C626.835 64.2383 629.018 73.4 632.339 80.5609C632.909 80.0344 633.478 79.6132 634.048 79.0866C630.631 74.9797 628.069 80.6662 628.354 84.1414C628.923 90.4598 632.15 100.464 637.274 104.044C637.559 104.255 638.034 104.255 638.318 104.044C638.413 103.939 638.603 103.834 638.698 103.729C639.077 103.413 639.267 102.991 639.172 102.36C639.172 102.254 639.077 102.044 639.077 101.938C638.603 100.675 636.61 101.306 636.895 102.781Z" fill="#E8E8E8"/>
<path d="M648.947 77.6123C648.188 74.3478 648.757 71.1886 649.421 67.924C650.086 64.8701 653.407 56.7615 657.203 62.0268C657.963 63.0799 659.196 61.9215 659.006 60.8684C662.613 59.9207 664.416 60.7631 664.226 63.5011C664.321 64.133 664.321 64.8701 664.321 65.6073C664.321 67.1869 664.226 68.7665 664.131 70.3461C663.846 74.2425 663.467 78.0335 662.897 81.8246C661.948 88.3536 660.43 94.7774 658.627 101.096C658.247 102.57 660.24 103.202 660.715 101.728C662.708 94.7774 664.321 87.7218 665.27 80.4556C666.029 74.769 667.263 68.0293 666.314 62.2374C665.839 59.1835 663.846 55.6031 660.525 55.919C657.868 56.1296 656.539 58.7623 656.919 61.5003C657.488 61.0791 658.152 60.7631 658.722 60.3419C656.349 56.8668 651.889 57.8145 649.611 60.9737C646.575 65.186 645.815 73.1894 646.859 78.1388C647.144 79.7184 649.232 79.0866 648.947 77.6123Z" fill="#E8E8E8"/>
<path d="M571.793 146.904C573.216 148.168 573.406 151.433 573.691 153.328C574.07 155.75 574.26 158.172 574.26 160.7C574.26 162.174 576.443 162.279 576.443 160.7C576.443 157.646 576.158 154.592 575.589 151.643C575.209 149.537 574.83 146.694 573.311 145.22C572.267 144.272 570.749 145.957 571.793 146.904Z" fill="#E8E8E8"/>
<path d="M596.942 145.43C598.84 150.38 599.409 155.645 598.555 160.91C598.27 162.385 600.358 163.017 600.643 161.542C601.592 155.856 601.022 150.169 599.029 144.798C598.555 143.429 596.467 144.061 596.942 145.43Z" fill="#E8E8E8"/>
<path d="M0 2.10701C0 84.1414 0 166.281 0 248.315C0 271.483 0 294.651 0 317.713C0 319.187 2.18274 319.292 2.18274 317.713C2.18274 235.678 2.18274 153.539 2.18274 71.5045C2.18274 48.3369 2.18274 25.1693 2.18274 2.10701C2.18274 0.5274 0 0.5274 0 2.10701Z" fill="#E8E8E8"/>
<path d="M2.46744 2.52827C73.0737 2.52827 143.68 2.52827 214.381 2.52827C234.595 2.52827 254.714 2.52827 274.928 2.52827C276.256 2.52827 276.351 0.106201 274.928 0.106201C204.322 0.106201 133.715 0.106201 63.0142 0.106201C42.8003 0.106201 22.6813 0.106201 2.46744 0.106201C1.13882 0.211508 1.13882 2.52827 2.46744 2.52827Z" fill="#E8E8E8"/>
<path d="M273.789 2.84419C274.074 85.4051 274.169 167.966 273.979 250.527C273.884 273.8 273.884 296.967 273.789 320.24C273.789 321.715 275.877 321.715 275.972 320.24C276.256 237.785 276.351 155.329 276.161 72.8735C276.067 49.4953 276.067 26.2224 275.972 2.84419C275.972 1.26458 273.789 1.26458 273.789 2.84419Z" fill="#E8E8E8"/>
<path d="M1.80311 320.451C72.8839 320.451 144.059 320.451 215.14 320.451C235.259 320.451 255.378 320.451 275.592 320.451C276.921 320.451 277.016 318.029 275.592 318.029C204.511 318.029 133.336 318.029 62.255 318.029C42.136 318.029 22.017 318.029 1.80311 318.029C0.379595 318.029 0.379595 320.451 1.80311 320.451Z" fill="#E8E8E8"/>
<path d="M7.02264 13.9014C7.02264 88.6696 7.02264 163.332 7.02264 238.101C7.02264 259.478 7.02264 280.855 7.02264 302.338C7.02264 303.812 9.20535 303.918 9.20535 302.338C9.20535 227.57 9.20535 152.907 9.20535 78.1389C9.20535 56.7615 9.20535 35.3841 9.20535 13.9014C9.11045 12.3218 7.02264 12.3218 7.02264 13.9014Z" fill="#E8E8E8"/>
<path d="M9.39518 15.797C75.2564 15.797 141.118 15.797 207.074 15.797C225.674 15.797 244.275 15.797 262.875 15.797C264.204 15.797 264.299 13.3749 262.875 13.3749C197.014 13.3749 131.153 13.3749 65.1969 13.3749C46.5963 13.3749 27.9957 13.3749 9.39518 13.3749C7.97167 13.3749 7.97167 15.797 9.39518 15.797Z" fill="#E8E8E8"/>
<path d="M8.73087 305.602C72.2195 305.602 135.613 305.602 199.102 305.602C217.133 305.602 235.069 305.602 253.101 305.602C254.429 305.602 254.524 303.18 253.101 303.18C189.612 303.18 126.218 303.18 62.7295 303.18C44.6983 303.18 26.762 303.18 8.73087 303.18C7.30736 303.18 7.30736 305.602 8.73087 305.602Z" fill="#E8E8E8"/>
<path d="M261.736 16.7447C261.736 90.9863 261.736 165.123 261.736 239.364C261.736 260.32 261.736 281.382 261.736 302.338C261.736 303.812 263.919 303.918 263.919 302.338C263.919 228.096 263.919 153.96 263.919 79.7184C263.919 58.7623 263.919 37.7009 263.919 16.7447C263.824 15.1651 261.736 15.1651 261.736 16.7447Z" fill="#E8E8E8"/>
<path d="M169.968 16.5341C130.868 70.8727 91.7692 125.106 52.765 179.444C51.9109 180.603 53.4292 182.288 54.2834 181.129C93.3825 126.791 132.482 72.5576 171.486 18.219C172.34 16.9553 170.822 15.2704 169.968 16.5341Z" fill="#E8E8E8"/>
<path d="M215.71 19.588C165.317 86.5634 115.02 153.539 64.6275 220.514C50.2975 239.575 35.8725 258.741 21.5425 277.801C20.6884 278.96 22.2068 280.645 23.0609 279.486C73.4533 212.511 123.751 145.535 174.143 78.56C188.473 59.4994 202.898 40.3335 217.228 21.2729C218.082 20.1145 216.564 18.4296 215.71 19.588Z" fill="#E8E8E8"/>
<path d="M258.13 121.841C234.88 156.382 211.914 191.134 189.232 226.201C188.473 227.465 190.276 228.623 191.035 227.359C213.622 192.292 236.588 157.54 259.933 123C260.788 121.841 258.889 120.683 258.13 121.841Z" fill="#E8E8E8"/>
<path d="M636.026 633.108C681.768 614.679 727.32 643.218 770.595 657.013C815.388 671.335 862.364 668.175 907.727 658.382C934.489 652.59 960.776 644.692 986.969 636.689C988.772 636.162 988.013 633.108 986.21 633.635C939.993 647.746 893.017 661.962 844.902 663.542C820.703 664.384 796.408 661.752 773.062 654.485C750.951 647.64 729.788 637.32 707.581 630.581C684.045 623.525 658.612 620.682 635.266 630.054C633.558 630.686 634.222 633.74 636.026 633.108Z" fill="#E8E8E8"/>
</svg>
