<svg width="783" height="725" viewBox="0 0 783 725" fill="none" xmlns="http://www.w3.org/2000/svg">
<path d="M595.803 351.201C595.803 388.69 595.803 426.179 595.803 463.669C595.803 465.143 597.986 465.248 597.986 463.669C597.986 426.179 597.986 388.69 597.986 351.201C597.986 349.621 595.803 349.621 595.803 351.201Z" fill="#E8E8E8"/>
<path d="M597.511 353.201C654.926 352.464 712.246 351.622 769.661 350.885C770.99 350.885 771.085 348.463 769.661 348.463C712.246 349.2 654.926 350.042 597.511 350.779C596.182 350.779 596.182 353.201 597.511 353.201Z" fill="#E8E8E8"/>
<path d="M597.226 465.038C611.366 465.038 625.507 465.038 639.552 465.038C640.881 465.038 640.975 462.616 639.552 462.616C625.412 462.616 611.271 462.616 597.226 462.616C595.898 462.721 595.898 465.038 597.226 465.038Z" fill="#E8E8E8"/>
<path d="M639.647 414.174C641.165 431.129 642.304 448.083 642.779 465.143C643.158 479.886 643.253 494.418 644.582 509.056C645.341 517.691 645.721 526.327 645.721 534.962C645.721 539.806 646.29 544.755 647.239 549.494C648.378 554.654 649.896 561.604 653.977 564.974C657.678 568.134 662.708 568.028 667.073 566.554C668.402 566.133 667.832 563.816 666.504 564.237C659.291 566.659 653.977 563.711 651.32 556.129C649.232 550.126 647.998 543.386 647.808 536.857C647.714 531.171 647.903 525.484 647.619 519.798C647.049 511.478 646.1 503.264 645.531 494.945C644.772 483.045 645.151 471.04 644.772 459.035C644.202 443.976 643.158 429.023 641.83 413.964C641.64 412.595 639.552 412.595 639.647 414.174Z" fill="#E8E8E8"/>
<path d="M641.545 417.755C642.019 413.016 643.348 409.225 647.903 407.645C651.035 406.592 654.356 407.013 657.583 407.329C658.912 407.435 658.912 405.118 657.583 404.907C653.123 404.381 648.188 403.959 644.202 406.803C640.691 409.33 639.837 413.226 639.457 417.544C639.267 419.334 641.355 419.334 641.545 417.755Z" fill="#E8E8E8"/>
<path d="M674.381 405.644C669.446 403.328 660.999 399.958 656.919 405.96C654.356 409.751 654.831 416.07 654.736 420.598C654.451 434.709 655.4 448.82 656.349 462.826C658.342 491.575 661.854 520.113 663.562 548.862C663.752 552.969 663.277 557.708 664.131 561.71C666.314 570.871 676.184 567.607 681.783 564.974C683.016 564.448 682.447 562.131 681.213 562.658C678.177 564.027 672.577 566.975 669.256 565.08C665.839 563.079 665.934 559.498 665.934 555.918C665.934 552.548 665.745 549.178 665.46 545.808C664.701 534.856 663.657 523.904 662.708 512.952C660.335 486.31 657.583 459.667 656.919 432.919C656.824 427.338 656.729 421.862 657.014 416.28C657.203 413.121 657.109 409.435 659.196 407.013C662.898 402.801 669.636 405.96 673.811 407.856C675.045 408.488 675.614 406.276 674.381 405.644Z" fill="#E8E8E8"/>
<path d="M686.243 563.5C680.644 564.764 681.403 551.284 681.024 548.23C680.454 543.808 679.79 539.385 679.126 535.067C677.892 526.853 677.892 518.639 677.512 510.32C677.133 500.21 675.899 490.101 675.709 479.991C675.424 468.513 675.899 457.14 674.95 445.766C674.381 437.658 673.906 429.444 673.526 421.23C673.147 413.542 675.709 399.958 685.294 404.486C686.528 405.118 687.667 403.012 686.338 402.485C676.373 397.746 671.818 408.382 671.344 417.965C670.964 425.442 672.103 433.34 672.483 440.922C672.767 446.082 673.337 451.242 673.337 456.402C673.432 468.829 673.147 481.36 674.096 493.787C674.855 504.528 674.95 515.375 675.804 526.011C676.563 535.804 678.936 545.387 679.41 555.286C679.695 560.235 680.739 567.186 686.718 565.922C688.141 565.396 687.572 563.184 686.243 563.5Z" fill="#E8E8E8"/>
<path d="M685.674 404.697C691.653 401.959 694.215 409.436 694.499 414.596C694.594 416.175 694.784 418.703 693.361 419.756C692.601 420.282 691.083 419.861 690.229 420.282C686.338 421.967 687.477 426.917 687.382 430.813C687.097 447.557 687.002 464.301 687.002 481.044C687.097 497.788 687.287 514.532 687.667 531.276C687.762 535.488 686.623 541.912 689.849 545.177C692.507 547.809 695.164 549.178 695.448 553.706C695.733 559.604 691.273 563.289 686.338 563.184C685.009 563.184 685.009 565.501 686.338 565.606C691.368 565.712 696.303 562.342 697.441 556.655C697.916 554.233 697.536 551.706 696.587 549.494C695.449 546.756 693.74 546.124 691.937 544.123C688.711 540.543 689.754 532.013 689.66 527.38C689.565 521.798 689.47 516.217 689.375 510.636C689.185 500.21 689.09 489.68 689.09 479.254C689.09 468.829 689.09 458.298 689.185 447.873C689.28 442.291 689.28 436.71 689.375 431.129C689.375 429.339 688.995 426.495 689.47 424.81C690.419 421.756 691.842 423.125 693.74 422.283C697.916 420.493 696.872 413.753 695.923 409.857C694.594 404.591 690.039 400.379 685.009 402.696C683.871 403.012 684.44 405.329 685.674 404.697Z" fill="#E8E8E8"/>
<path d="M769.471 350.779C769.471 383.319 769.471 415.859 769.471 448.399C769.471 449.873 771.654 449.979 771.654 448.399C771.654 415.859 771.654 383.319 771.654 350.779C771.654 349.305 769.471 349.305 769.471 350.779Z" fill="#E8E8E8"/>
<path d="M688.141 465.669C715.473 465.669 742.899 465.669 770.23 465.669C771.559 465.669 771.654 463.247 770.23 463.247C742.899 463.247 715.473 463.247 688.141 463.247C686.718 463.353 686.718 465.669 688.141 465.669Z" fill="#E8E8E8"/>
<path d="M769.471 447.136C769.471 452.822 769.471 458.403 769.471 464.09C769.471 465.564 771.654 465.67 771.654 464.09C771.654 458.403 771.654 452.822 771.654 447.136C771.654 445.556 769.471 445.556 769.471 447.136Z" fill="#E8E8E8"/>
<path d="M704.559 359.52C704.559 367.418 704.559 375.211 704.559 383.109C704.559 384.583 706.742 384.688 706.742 383.109C706.742 375.211 706.742 367.418 706.742 359.52C706.647 357.94 704.559 357.94 704.559 359.52Z" fill="#E8E8E8"/>
<path d="M705.982 385.425C721.451 385.425 736.92 385.425 752.389 385.425C753.718 385.425 753.812 383.003 752.389 383.003C736.92 383.003 721.451 383.003 705.982 383.003C704.559 383.109 704.559 385.425 705.982 385.425Z" fill="#E8E8E8"/>
<path d="M705.223 360.678C721.072 360.678 736.92 360.678 752.769 360.678C754.097 360.678 754.192 358.256 752.769 358.256C736.92 358.256 721.072 358.256 705.223 358.256C703.8 358.256 703.8 360.678 705.223 360.678Z" fill="#E8E8E8"/>
<path d="M752.768 359.836C752.768 367.523 752.768 375.316 752.768 383.003C752.768 384.478 754.951 384.583 754.951 383.003C754.951 375.316 754.951 367.523 754.951 359.836C754.951 358.361 752.768 358.361 752.768 359.836Z" fill="#E8E8E8"/>
<path d="M710.158 368.05C714.713 368.05 719.269 368.05 723.824 368.05C725.152 368.05 725.247 365.628 723.824 365.628C719.269 365.628 714.713 365.628 710.158 365.628C708.735 365.733 708.735 368.05 710.158 368.05Z" fill="#E8E8E8"/>
<path d="M733.694 367.313C737.395 367.313 741.001 367.313 744.702 367.313C746.031 367.313 746.126 364.891 744.702 364.891C741.001 364.891 737.395 364.891 733.694 364.891C732.365 364.891 732.365 367.313 733.694 367.313Z" fill="#E8E8E8"/>
<path d="M723.729 446.925C719.933 446.082 720.502 440.291 722.59 437.868C724.868 435.236 728.664 435.446 731.036 437.868C733.314 440.291 733.124 444.292 730.941 446.714C728.664 449.347 724.014 449.242 722.59 445.451C722.021 444.082 720.028 444.713 720.502 446.082C722.305 450.716 727.62 452.296 731.321 449.452C735.212 446.398 735.971 439.869 732.46 436.183C729.043 432.498 723.254 432.708 720.407 437.026C717.845 440.922 718.13 448.083 723.16 449.242C724.488 449.558 725.058 447.241 723.729 446.925Z" fill="#E8E8E8"/>
<path d="M746.6 447.135C744.607 444.819 742.235 441.238 744.038 437.974C745.651 434.92 750.111 435.552 752.389 437.237C754.951 439.132 755.711 443.028 753.623 445.661C751.44 448.61 747.644 448.083 745.461 445.45C744.512 444.292 742.994 445.977 743.943 447.135C746.695 450.505 751.725 451.137 754.761 447.767C757.798 444.397 757.608 438.921 754.382 435.868C751.44 433.13 745.841 432.287 742.994 435.552C739.388 439.659 742.14 445.345 745.082 448.715C746.031 449.979 747.549 448.294 746.6 447.135Z" fill="#E8E8E8"/>
<path d="M603.774 361.099C603.774 387.11 603.774 413.226 603.774 439.237C603.774 440.712 605.957 440.817 605.957 439.237C605.957 413.226 605.957 387.11 605.957 361.099C605.957 359.625 603.774 359.625 603.774 361.099Z" fill="#E8E8E8"/>
<path d="M604.913 362.258C623.039 362.258 641.165 362.258 659.291 362.258C660.62 362.258 660.715 359.836 659.291 359.836C641.165 359.836 623.039 359.836 604.913 359.836C603.49 359.941 603.49 362.258 604.913 362.258Z" fill="#E8E8E8"/>
<path d="M614.213 370.366C614.118 370.051 614.308 369.524 614.593 369.313C614.973 368.997 615.447 369.208 615.732 369.629C616.301 370.577 615.067 371.104 614.403 370.577C613.264 369.735 612.22 371.736 613.359 372.578C614.498 373.42 616.111 373.21 617.155 372.262C618.294 371.104 618.294 369.313 617.44 367.944C616.491 366.681 614.878 366.26 613.644 367.207C612.41 368.155 611.936 369.945 612.6 371.42C612.79 372.051 613.644 372.157 614.024 371.841C614.403 371.63 614.498 370.998 614.213 370.366Z" fill="#E8E8E8"/>
<path d="M510.866 258.846C510.866 264.006 510.866 269.166 510.866 274.326C510.866 275.801 513.049 275.906 513.049 274.326C513.049 269.166 513.049 264.006 513.049 258.846C512.954 257.372 510.866 257.372 510.866 258.846Z" fill="#E8E8E8"/>
<path d="M512.669 259.267C590.109 259.267 667.548 259.267 744.987 259.267C746.315 259.267 746.41 256.845 744.987 256.845C667.548 256.845 590.109 256.845 512.669 256.845C511.341 256.845 511.341 259.267 512.669 259.267Z" fill="#E8E8E8"/>
<path d="M514.188 276.327C590.678 276.327 667.073 276.327 743.563 276.327C744.892 276.327 744.987 273.905 743.563 273.905C667.073 273.905 590.678 273.905 514.188 273.905C512.764 273.905 512.764 276.327 514.188 276.327Z" fill="#E8E8E8"/>
<path d="M743.943 259.689C743.943 264.533 743.943 269.482 743.943 274.326C743.943 275.801 746.125 275.906 746.125 274.326C746.125 269.482 746.125 264.533 746.125 259.689C746.125 258.214 743.943 258.214 743.943 259.689Z" fill="#E8E8E8"/>
<path d="M514.378 161.332C514.378 165.86 514.378 170.493 514.378 175.022C514.378 176.496 516.56 176.601 516.56 175.022C516.56 170.493 516.56 165.86 516.56 161.332C516.465 159.857 514.378 159.857 514.378 161.332Z" fill="#E8E8E8"/>
<path d="M516.655 163.227C592.006 163.227 667.453 163.227 742.804 163.227C744.133 163.227 744.227 160.805 742.804 160.805C667.453 160.805 592.006 160.805 516.655 160.805C515.327 160.805 515.327 163.227 516.655 163.227Z" fill="#E8E8E8"/>
<path d="M516.086 178.286C590.868 178.286 665.65 178.286 740.337 178.286C741.665 178.286 741.76 175.864 740.337 175.864C665.555 175.864 590.773 175.864 516.086 175.864C514.662 175.864 514.662 178.286 516.086 178.286Z" fill="#E8E8E8"/>
<path d="M741.76 162.701C741.76 167.229 741.76 171.862 741.76 176.391C741.76 177.865 743.943 177.97 743.943 176.391C743.943 171.862 743.943 167.229 743.943 162.701C743.943 161.226 741.76 161.121 741.76 162.701Z" fill="#E8E8E8"/>
<path d="M540.665 160.278C540.665 155.961 540.665 151.538 540.76 147.22C540.381 147.642 540.001 148.063 539.716 148.379C586.787 144.693 634.143 145.22 681.119 150.064C680.739 149.642 680.359 149.221 680.075 148.905C680.549 153.223 681.119 157.54 681.593 161.858C681.783 163.332 683.871 163.332 683.776 161.858C683.301 157.54 682.732 153.223 682.257 148.905C682.162 148.273 681.878 147.747 681.213 147.747C634.238 142.903 586.882 142.376 539.811 146.062C539.242 146.062 538.767 146.589 538.767 147.22C538.767 151.538 538.767 155.961 538.672 160.278C538.578 161.858 540.665 161.858 540.665 160.278Z" fill="#E8E8E8"/>
<path d="M583.75 144.483C584.415 142.482 584.035 140.902 584.32 139.007C585.174 134.162 588.875 133.846 592.671 133.636C598.27 133.425 603.869 133.215 609.468 133.004C621.331 132.583 633.099 132.162 644.961 131.74C656.349 131.319 667.832 130.687 679.221 130.582C685.104 130.477 691.083 130.687 696.967 131.74C701.427 132.583 702.566 135.531 703.041 140.165C703.42 143.114 703.61 146.062 703.8 149.116C704.179 148.695 704.559 148.274 704.844 147.958C696.493 148.063 688.236 147.536 679.98 146.589C678.651 146.378 678.651 148.8 679.98 149.011C688.236 149.958 696.493 150.485 704.844 150.38C705.413 150.38 705.983 149.853 705.888 149.221C705.603 144.588 705.983 136.795 703.61 132.688C701.332 128.897 695.449 129.213 691.842 128.792C676.943 127.317 661.664 128.897 646.764 129.424C631.77 129.95 616.871 130.582 601.876 131.108C598.175 131.214 594.379 131.424 590.678 131.53C588.78 131.635 586.502 131.319 584.699 132.267C580.713 134.478 582.801 140.27 581.568 143.956C581.283 145.22 583.371 145.851 583.75 144.483Z" fill="#E8E8E8"/>
<path d="M640.975 132.056C640.121 132.372 640.026 132.899 640.691 133.53C640.786 133.741 640.975 134.057 641.07 134.268C641.545 135.321 641.924 136.479 642.114 137.637C642.589 139.849 642.684 142.06 642.399 144.377C642.209 145.851 644.297 146.483 644.487 145.009C645.056 140.691 644.582 136.479 642.779 132.688C642.304 131.635 641.64 130.161 640.406 130.266C639.457 130.266 638.888 131.108 638.888 132.056C638.888 133.53 641.07 133.53 640.975 132.056Z" fill="#E8E8E8"/>
<path d="M659.861 129.845C662.708 135.11 663.182 141.113 661.189 146.905C660.715 148.379 662.803 148.905 663.277 147.536C665.46 141.218 664.89 134.478 661.759 128.686C660.999 127.317 659.196 128.581 659.861 129.845Z" fill="#E8E8E8"/>
<path d="M634.332 130.161C635.186 128.37 633.099 122.157 632.814 119.946C632.339 116.576 632.055 113.206 631.96 109.836C631.865 107.52 631.485 107.414 633.383 106.151C634.332 105.624 635.851 105.519 636.895 105.308C640.311 104.571 643.822 103.939 647.334 103.729C651.32 103.413 662.043 101.517 664.131 106.467C665.175 108.994 664.796 113.733 664.701 116.471C664.606 120.262 664.321 124.053 663.752 127.844C663.562 129.318 665.65 129.95 665.839 128.476C666.599 123.21 666.978 117.945 666.788 112.574C666.694 109.626 666.883 105.308 664.701 103.097C662.423 100.78 658.247 101.201 655.4 101.096C650.181 100.991 644.961 101.412 639.837 102.36C637.274 102.781 631.39 102.781 629.967 105.624C628.449 108.467 630.157 115.523 630.441 118.472C630.726 121.42 630.726 129.002 632.909 130.793C634.143 131.846 635.376 131.424 635.946 129.845C636.136 129.424 636.135 128.792 635.756 128.37C634.522 127.107 633.194 127.212 632.434 128.897C631.865 130.266 633.668 131.53 634.332 130.161Z" fill="#E8E8E8"/>
<path d="M636.895 102.781C636.041 98.8844 633.573 95.7252 632.245 91.9341C631.675 90.3545 631.201 88.8802 630.821 87.1953C630.726 86.6688 630.631 86.0369 630.536 85.5104C629.492 83.1936 630.157 81.614 632.339 80.8769C633.194 81.9299 634.522 80.5609 634.048 79.4026C631.296 73.5054 629.872 67.0816 630.252 60.3419C630.441 56.4456 630.252 56.5509 633.478 54.866C636.515 53.181 637.654 53.7076 640.026 56.4456C642.019 58.657 643.253 61.9216 644.202 64.7649C647.998 76.3487 649.517 89.0908 649.801 101.306C649.801 102.781 651.984 102.886 651.984 101.306C651.699 91.3023 650.466 81.4034 648.283 71.6098C646.67 64.7649 644.677 56.0244 638.793 52.128C634.522 49.39 629.967 50.8643 628.733 56.235C626.835 64.2383 629.018 73.4 632.339 80.5609C632.909 80.0344 633.478 79.6132 634.048 79.0866C630.631 74.9797 628.069 80.6662 628.354 84.1414C628.923 90.4598 632.15 100.464 637.274 104.044C637.559 104.255 638.034 104.255 638.318 104.044C638.413 103.939 638.603 103.834 638.698 103.729C639.077 103.413 639.267 102.991 639.172 102.36C639.172 102.254 639.077 102.044 639.077 101.938C638.603 100.675 636.61 101.306 636.895 102.781Z" fill="#E8E8E8"/>
<path d="M648.947 77.6123C648.188 74.3478 648.757 71.1886 649.421 67.924C650.086 64.8701 653.407 56.7615 657.203 62.0268C657.963 63.0799 659.196 61.9215 659.006 60.8684C662.613 59.9207 664.416 60.7631 664.226 63.5011C664.321 64.133 664.321 64.8701 664.321 65.6073C664.321 67.1869 664.226 68.7665 664.131 70.3461C663.846 74.2425 663.467 78.0335 662.897 81.8246C661.948 88.3536 660.43 94.7774 658.627 101.096C658.247 102.57 660.24 103.202 660.715 101.728C662.708 94.7774 664.321 87.7218 665.27 80.4556C666.029 74.769 667.263 68.0293 666.314 62.2374C665.839 59.1835 663.846 55.6031 660.525 55.919C657.868 56.1296 656.539 58.7623 656.919 61.5003C657.488 61.0791 658.152 60.7631 658.722 60.3419C656.349 56.8668 651.889 57.8145 649.611 60.9737C646.575 65.186 645.815 73.1894 646.859 78.1388C647.144 79.7184 649.232 79.0866 648.947 77.6123Z" fill="#E8E8E8"/>
<path d="M571.793 146.904C573.216 148.168 573.406 151.433 573.691 153.328C574.07 155.75 574.26 158.172 574.26 160.7C574.26 162.174 576.443 162.279 576.443 160.7C576.443 157.646 576.158 154.592 575.589 151.643C575.209 149.537 574.83 146.694 573.311 145.22C572.267 144.272 570.749 145.957 571.793 146.904Z" fill="#E8E8E8"/>
<path d="M596.942 145.43C598.84 150.38 599.409 155.645 598.555 160.91C598.27 162.385 600.358 163.017 600.643 161.542C601.592 155.856 601.022 150.169 599.029 144.798C598.555 143.429 596.467 144.061 596.942 145.43Z" fill="#E8E8E8"/>
<path d="M0 2.10701C0 84.1414 0 166.281 0 248.315C0 271.483 0 294.651 0 317.713C0 319.187 2.18274 319.292 2.18274 317.713C2.18274 235.678 2.18274 153.539 2.18274 71.5045C2.18274 48.3369 2.18274 25.1693 2.18274 2.10701C2.18274 0.5274 0 0.5274 0 2.10701Z" fill="#E8E8E8"/>
<path d="M2.46744 2.52827C73.0737 2.52827 143.68 2.52827 214.381 2.52827C234.595 2.52827 254.714 2.52827 274.928 2.52827C276.256 2.52827 276.351 0.106201 274.928 0.106201C204.322 0.106201 133.715 0.106201 63.0142 0.106201C42.8003 0.106201 22.6813 0.106201 2.46744 0.106201C1.13882 0.211508 1.13882 2.52827 2.46744 2.52827Z" fill="#E8E8E8"/>
<path d="M273.789 2.84419C274.074 85.4051 274.169 167.966 273.979 250.527C273.884 273.8 273.884 296.967 273.789 320.24C273.789 321.715 275.877 321.715 275.972 320.24C276.256 237.785 276.351 155.329 276.161 72.8735C276.067 49.4953 276.067 26.2224 275.972 2.84419C275.972 1.26458 273.789 1.26458 273.789 2.84419Z" fill="#E8E8E8"/>
<path d="M1.80311 320.451C72.8838 320.451 144.059 320.451 215.14 320.451C235.259 320.451 255.378 320.451 275.592 320.451C276.921 320.451 277.016 318.029 275.592 318.029C204.511 318.029 133.336 318.029 62.255 318.029C42.136 318.029 22.017 318.029 1.80311 318.029C0.379595 318.029 0.379595 320.451 1.80311 320.451Z" fill="#E8E8E8"/>
<path d="M7.02264 13.9014C7.02264 88.6696 7.02264 163.332 7.02264 238.101C7.02264 259.478 7.02264 280.855 7.02264 302.338C7.02264 303.812 9.20535 303.918 9.20535 302.338C9.20535 227.57 9.20535 152.907 9.20535 78.1389C9.20535 56.7615 9.20535 35.3841 9.20535 13.9014C9.11045 12.3218 7.02264 12.3218 7.02264 13.9014Z" fill="#E8E8E8"/>
<path d="M9.39518 15.797C75.2564 15.797 141.118 15.797 207.074 15.797C225.674 15.797 244.275 15.797 262.875 15.797C264.204 15.797 264.299 13.3749 262.875 13.3749C197.014 13.3749 131.153 13.3749 65.1969 13.3749C46.5963 13.3749 27.9957 13.3749 9.39518 13.3749C7.97167 13.3749 7.97167 15.797 9.39518 15.797Z" fill="#E8E8E8"/>
<path d="M8.73087 305.602C72.2195 305.602 135.613 305.602 199.102 305.602C217.133 305.602 235.069 305.602 253.101 305.602C254.429 305.602 254.524 303.18 253.101 303.18C189.612 303.18 126.218 303.18 62.7295 303.18C44.6983 303.18 26.762 303.18 8.73087 303.18C7.30736 303.18 7.30736 305.602 8.73087 305.602Z" fill="#E8E8E8"/>
<path d="M261.736 16.7447C261.736 90.9863 261.736 165.123 261.736 239.364C261.736 260.32 261.736 281.382 261.736 302.338C261.736 303.812 263.919 303.918 263.919 302.338C263.919 228.096 263.919 153.96 263.919 79.7184C263.919 58.7623 263.919 37.7009 263.919 16.7447C263.824 15.1651 261.736 15.1651 261.736 16.7447Z" fill="#E8E8E8"/>
<path d="M169.968 16.5341C130.868 70.8727 91.7692 125.106 52.765 179.444C51.9109 180.603 53.4292 182.288 54.2834 181.129C93.3825 126.791 132.482 72.5576 171.486 18.219C172.34 16.9553 170.822 15.2704 169.968 16.5341Z" fill="#E8E8E8"/>
<path d="M215.71 19.588C165.317 86.5634 115.02 153.539 64.6275 220.514C50.2975 239.575 35.8725 258.741 21.5425 277.801C20.6884 278.96 22.2068 280.645 23.0609 279.486C73.4533 212.511 123.751 145.535 174.143 78.56C188.473 59.4994 202.898 40.3335 217.228 21.2729C218.082 20.1145 216.564 18.4296 215.71 19.588Z" fill="#E8E8E8"/>
<path d="M258.13 121.841C234.88 156.382 211.914 191.134 189.232 226.201C188.473 227.465 190.276 228.623 191.035 227.359C213.622 192.292 236.588 157.54 259.933 123C260.788 121.841 258.889 120.683 258.13 121.841Z" fill="#E8E8E8"/>
<path d="M636.026 633.108C681.768 614.679 727.32 643.218 770.595 657.013C815.388 671.335 862.364 668.175 907.727 658.382C934.489 652.59 960.776 644.692 986.969 636.689C988.772 636.162 988.013 633.108 986.21 633.635C939.993 647.746 893.017 661.962 844.902 663.542C820.703 664.384 796.408 661.752 773.062 654.485C750.951 647.64 729.788 637.32 707.581 630.581C684.045 623.525 658.612 620.682 635.266 630.054C633.558 630.686 634.222 633.74 636.026 633.108Z" fill="#E8E8E8"/>
<path d="M77.7078 259.208C75.2857 259.102 71.3893 259.313 66.9664 260.682C65.3868 261.208 56.1197 264.157 56.225 268.264C56.225 270.054 58.1206 271.318 60.3321 272.792C64.6496 275.741 68.8619 276.583 75.1803 277.847C80.8669 279.005 85.5005 279.848 88.5544 280.374C91.503 283.533 96.3471 287.851 103.403 290.905C105.509 291.853 115.092 295.854 127.518 294.38C130.783 294.064 133.415 293.432 135.205 292.906C132.783 298.908 129.94 306.912 127.518 316.6C125.623 324.182 122.358 337.767 122.358 355.353C122.358 381.364 129.624 401.162 133.099 409.797C136.68 418.432 140.892 428.542 150.054 439.494C156.056 446.654 169.22 462.556 191.124 467.716C193.967 468.348 200.917 469.822 214.291 468.769C224.401 467.926 247.252 464.978 278.529 448.129C294.43 439.599 316.018 427.91 335.605 404.321C351.085 385.682 374.253 348.824 362.353 334.292C360.037 331.448 356.983 330.29 354.139 329.237C343.187 325.13 329.708 328.078 305.382 342.821C292.113 350.825 290.534 353.247 252.939 380.627C244.409 386.84 232.088 395.58 214.397 398.74C203.339 400.74 198.179 399.056 195.862 398.213C183.541 393.474 178.697 380.311 175.328 371.044C168.798 353.352 170.694 337.661 171.747 330.29C173.221 318.917 176.486 310.071 181.014 298.066C186.595 283.007 188.175 283.533 191.334 272.897C194.599 262.051 198.074 249.414 193.44 236.145C191.861 231.722 189.123 224.035 181.646 221.086C176.17 218.875 170.694 220.244 168.272 221.086C166.271 213.715 164.586 205.606 163.112 196.866C160.9 183.386 160.163 170.96 160.058 160.113C157.531 158.534 153.424 156.533 148.264 155.585C141.524 154.321 135.943 155.269 130.256 156.638C115.092 160.113 105.088 162.43 92.2401 169.275C86.2376 172.54 78.129 177.489 69.5991 184.861C70.1256 197.076 71.1786 210.029 72.653 223.614C74.0219 235.935 75.7069 247.94 77.7078 259.208Z" fill="white"/>
<path d="M174.275 240.884C169.325 242.358 163.954 239.199 162.691 234.144C161.216 228.142 166.903 222.666 172.379 221.613C183.752 219.401 191.018 231.09 191.861 240.884C192.598 250.046 191.229 260.261 189.334 269.212C187.227 279.111 182.594 288.062 178.697 297.223C171.747 313.651 168.904 332.291 169.852 350.088C170.589 365.462 175.222 381.469 186.595 392.421C197.758 403.057 214.186 408.533 229.034 402.847C230.93 402.109 230.087 399.055 228.192 399.793C209.131 407.164 188.596 395.054 179.856 377.889C169.852 358.302 171.642 332.922 176.907 312.282C179.75 301.225 185.226 291.326 189.228 280.795C192.809 271.318 194.072 261.208 194.809 251.204C195.441 242.674 195.441 233.197 189.965 226.141C185.648 220.665 178.592 217.085 171.642 218.454C164.797 219.823 158.478 226.246 159.532 233.512C160.479 240.884 168.272 245.728 175.328 243.727C177.118 243.306 176.275 240.252 174.275 240.884Z" fill="#161616"/>
<path d="M196.6 400.214C227.244 403.689 251.149 381.259 274.211 364.725C286.637 355.774 299.485 346.928 312.964 339.662C319.809 335.976 327.075 332.817 334.657 331.132C341.292 329.658 355.087 327.236 359.51 334.292C360.563 335.976 363.301 334.397 362.248 332.712C355.719 322.392 337.079 326.709 327.707 329.763C312.438 334.818 298.642 344.085 285.374 353.036C271.684 362.303 258.941 372.729 245.252 381.996C230.824 391.684 214.396 399.161 196.6 397.055C194.493 396.739 194.599 399.898 196.6 400.214Z" fill="#161616"/>
<path d="M82.0253 182.86C80.0244 213.925 85.9216 244.886 99.085 273.108C99.9275 274.898 102.665 273.319 101.823 271.528C88.9755 243.833 83.2889 213.293 85.2898 182.86C85.2898 180.859 82.1306 180.859 82.0253 182.86Z" fill="#161616"/>
<path d="M101.086 275.53C127.623 272.687 153.424 265.315 177.434 253.731C179.224 252.889 177.644 250.151 175.854 250.993C152.371 262.367 127.097 269.633 101.086 272.371C99.0851 272.581 99.0851 275.741 101.086 275.53Z" fill="#161616"/>
<path d="M173.116 244.149C174.169 246.992 175.327 249.835 176.381 252.678C177.118 254.574 180.172 253.731 179.435 251.836C178.381 248.993 177.223 246.149 176.17 243.306C175.433 241.516 172.379 242.253 173.116 244.149Z" fill="#161616"/>
<path d="M158.373 161.166C160.163 180.754 159.953 202.026 167.535 220.349C168.272 222.245 171.326 221.402 170.589 219.507C163.112 201.394 163.322 180.438 161.638 161.166C161.322 159.166 158.162 159.166 158.373 161.166Z" fill="#161616"/>
<path d="M86.5535 183.492C96.2418 176.436 107.51 172.434 118.988 169.17C131.73 165.589 144.683 161.693 158.057 162.22C160.058 162.325 160.058 159.166 158.057 159.06C144.473 158.639 131.204 162.535 118.146 166.116C106.351 169.38 94.8728 173.487 84.9739 180.754C83.289 182.017 84.8686 184.755 86.5535 183.492Z" fill="#161616"/>
<path d="M121.41 244.043C113.512 240.147 109.195 232.249 108.247 223.719C107.194 214.136 111.406 207.502 118.988 202.131C126.254 196.866 134.784 192.969 143.525 197.392C152.16 201.71 156.056 210.871 158.373 219.717C158.9 221.718 161.954 220.876 161.427 218.875C158.794 208.66 153.845 198.34 143.63 193.917C133.731 189.599 124.148 194.233 116.145 200.235C107.931 206.343 103.929 214.031 105.298 224.351C106.457 233.723 111.406 242.464 119.936 246.676C121.621 247.729 123.2 244.991 121.41 244.043Z" fill="#161616"/>
<path d="M117.303 244.254C122.463 250.783 131.625 250.572 139.102 249.309C147.737 247.834 156.583 244.359 160.9 236.25C161.848 234.46 159.11 232.881 158.162 234.671C154.477 241.621 147.105 244.57 139.734 246.044C132.889 247.413 124.253 248.15 119.515 242.042C118.251 240.357 116.04 242.674 117.303 244.254Z" fill="#161616"/>
<path d="M158.373 218.664C159.216 221.718 159.637 224.877 159.742 228.036C159.847 230.037 163.007 230.037 162.901 228.036C162.796 224.561 162.269 221.192 161.427 217.822C160.9 215.821 157.847 216.663 158.373 218.664Z" fill="#161616"/>
<path d="M67.4929 186.335C68.4407 207.502 70.8627 228.458 75.075 249.203C76.1281 254.469 77.2864 259.839 78.6554 265.105C79.4979 268.475 80.1297 272.16 82.8677 274.477C87.7119 278.795 95.1887 276.899 100.665 275.109C102.56 274.477 101.718 271.423 99.8222 272.055C96.3471 273.213 92.6613 274.372 89.0809 273.74C83.4996 272.897 82.6571 267.948 81.4987 263.209C79.4979 254.995 77.813 246.676 76.3387 238.357C73.2848 221.192 71.4945 203.711 70.7574 186.335C70.6521 184.334 67.4929 184.334 67.4929 186.335Z" fill="#161616"/>
<path d="M68.9672 186.967C74.3378 186.756 79.4979 185.914 84.5527 184.229C86.4482 183.597 85.6057 180.543 83.7102 181.175C78.8661 182.754 74.0219 183.702 68.8619 183.807C66.9664 183.913 66.9663 187.072 68.9672 186.967Z" fill="#161616"/>
<path d="M70.0202 184.439C81.92 175.067 96.1365 169.38 110.458 164.957C117.303 162.851 124.253 160.745 131.309 159.06C139.734 156.954 149.106 156.112 156.267 162.009C157.847 163.272 160.058 161.061 158.478 159.797C145.42 149.056 127.202 156.638 112.986 160.85C96.8736 165.695 81.0776 171.697 67.7035 182.228C66.1239 183.491 68.4406 185.703 70.0202 184.439Z" fill="#161616"/>
<path d="M98.9797 167.695C93.7144 160.219 88.9756 152.321 86.6588 143.369C84.2368 134.102 83.9209 123.993 82.9731 114.515C82.7625 112.514 79.6033 112.514 79.8139 114.515C80.8669 124.309 81.0775 134.629 83.6049 144.212C86.027 153.374 90.8711 161.588 96.2418 169.275C97.4002 170.96 100.138 169.38 98.9797 167.695Z" fill="#161616"/>
<path d="M81.0775 112.83C81.6041 112.514 81.2882 112.514 81.0775 111.988C80.8669 111.461 80.7617 110.724 80.6564 110.198C80.5511 109.461 80.6563 107.565 81.8147 107.67C82.6572 107.67 82.6572 109.355 82.6572 109.987C82.6572 110.408 82.7625 110.935 82.5519 111.356C82.236 111.988 82.1306 111.567 82.3412 112.093C81.6041 110.198 78.5502 111.04 79.2874 112.936C80.3404 115.884 84.2368 115.463 85.3952 112.83C86.4483 110.408 85.9217 105.669 82.9731 104.827C79.7086 103.774 77.2865 107.144 77.3918 110.092C77.4971 112.62 78.9715 117.675 82.4466 115.779C84.4474 114.621 82.8678 111.883 81.0775 112.83Z" fill="#161616"/>
<path d="M124.675 115.358C129.624 128.521 131.204 142.422 128.887 156.322C128.571 158.323 131.625 159.166 131.941 157.165C134.258 142.632 132.889 128.205 127.729 114.515C126.992 112.725 123.938 113.462 124.675 115.358Z" fill="#161616"/>
<path d="M124.78 112.093C122.569 111.567 123.2 108.407 125.412 108.934C126.465 109.145 126.992 110.408 127.202 111.356C127.202 111.672 126.992 114.199 126.149 113.462C124.569 112.199 122.358 114.41 123.938 115.674C126.254 117.675 129.519 116.306 130.256 113.357C130.993 110.619 129.624 107.354 127.097 106.091C124.675 104.932 121.515 106.196 120.568 108.723C119.515 111.461 121.305 114.41 124.043 115.042C125.938 115.568 126.781 112.514 124.78 112.093Z" fill="#161616"/>
<path d="M77.813 257.944C72.0211 257.312 66.2292 258.365 61.2798 261.419C58.3312 263.209 53.4871 266.895 54.5401 271.002C55.6985 275.635 64.3337 276.478 67.9141 277.426C75.075 279.321 82.3412 280.374 89.7127 281.006C91.7136 281.217 91.7136 277.952 89.7127 277.847C80.6563 277.11 71.7052 275.53 63.07 272.792C60.4373 271.95 56.4357 271.634 59.279 266.895C60.1214 265.421 62.6488 264.157 64.2284 263.314C68.4407 261.103 73.0742 260.576 77.813 261.103C79.8139 261.314 79.8139 258.154 77.813 257.944Z" fill="#161616"/>
<path d="M88.5543 280.69C94.8728 285.113 101.823 291.642 109.3 293.959C117.093 296.276 126.676 295.433 134.679 294.801C136.68 294.696 136.68 291.537 134.679 291.642C126.991 292.169 117.619 293.116 110.142 290.905C102.981 288.799 96.1364 282.164 90.1339 277.952C88.5543 276.794 86.9747 279.532 88.5543 280.69Z" fill="#161616"/>
<path d="M132.573 293.748C115.408 338.399 117.303 394.317 144.894 434.544C157.109 452.446 175.854 466.663 197.969 469.19C221.031 471.823 245.989 464.451 266.945 455.29C290.85 444.864 312.332 429.384 330.866 411.061C332.341 409.586 330.129 407.375 328.655 408.849C297.589 439.494 255.993 463.609 211.659 466.242C159.531 469.401 131.73 417.379 126.044 372.307C122.779 345.981 126.149 319.233 135.627 294.485C136.364 292.59 133.31 291.853 132.573 293.748Z" fill="#161616"/>
<path d="M115.513 239.936C109.195 233.512 106.562 224.035 108.879 215.4C112.143 203.289 124.885 193.812 138.47 196.023C154.266 198.55 159.637 214.978 160.269 223.298C160.479 226.036 161.006 233.723 155.951 239.094C154.582 240.568 153.318 241.2 151.107 242.464C146.579 244.991 140.892 248.15 133.31 247.834C122.99 247.308 116.355 240.779 115.513 239.936Z" fill="#EC615B"/>
<path opacity="0.16" d="M146.579 154.743C149.422 156.428 152.371 158.113 155.214 159.903C143.841 160.85 128.571 163.273 111.827 169.802C100.875 174.014 91.8189 178.963 84.5527 183.597C83.9209 193.075 83.9209 204.132 85.3952 216.347C87.9225 238.357 93.9251 256.259 99.6116 269.212C102.35 271.739 105.719 274.477 109.826 276.688C126.254 285.64 143.314 282.586 149.738 281.006C146.579 289.22 142.156 301.752 137.943 317.337C128.676 351.141 127.518 372.729 125.307 372.623C123.095 372.518 121.41 351.246 124.464 329.553C126.57 314.283 130.677 302.068 133.942 293.643C128.887 294.275 124.675 293.959 121.726 293.643C111.722 292.485 104.456 288.588 99.1904 285.745C94.9781 283.428 91.6083 281.111 89.2915 279.426C84.9739 279.111 79.182 278.479 72.337 277.426C60.2267 275.53 58.1205 274.161 57.3834 272.266C56.0144 268.896 58.963 264.368 61.701 262.051C65.9133 258.47 72.3371 257.944 78.2343 260.471C75.7069 249.098 73.3901 236.25 71.9158 222.139C70.3362 207.607 69.8097 194.233 69.915 182.228C79.2873 176.331 91.7136 169.591 106.983 164.115C122.147 158.85 135.732 156.112 146.579 154.743Z" fill="#606060"/>
<path opacity="0.11" d="M163.112 232.67C164.902 229.616 173.643 229.932 179.224 234.144C185.858 239.094 187.754 249.414 184.911 251.731C183.226 252.994 180.066 251.941 178.276 250.783C174.59 248.361 174.485 244.043 174.485 243.622C173.853 243.622 167.008 243.201 164.06 237.935C163.533 236.988 162.059 234.355 163.112 232.67Z" fill="#606060"/>
<path opacity="0.09" d="M84.1315 184.755C84.7634 193.601 86.6589 206.975 92.9773 221.929C95.5047 227.931 98.5586 235.197 103.719 241.516C119.199 260.155 146.052 261.103 155.109 261.103C140.26 264.894 125.412 268.58 110.564 272.371C131.309 273.319 156.267 277.426 163.954 293.432C171.747 309.86 154.056 323.761 149.738 358.512C149.422 361.25 142.682 421.591 175.222 443.706C196.81 458.344 225.875 449.182 246.199 442.758C302.749 424.856 337.185 382.206 353.929 357.038C352.454 366.094 349.085 380.311 340.239 395.265C327.181 417.274 309.7 428.436 292.745 439.283C268.209 454.974 247.252 460.976 242.303 462.345C225.454 466.873 211.975 470.559 196.284 467.716C161.954 461.503 142.682 429.173 138.47 422.223C114.355 381.89 123.832 335.555 128.676 312.072C130.361 304.068 132.152 297.539 133.521 293.011C129.203 293.854 121.726 294.696 112.986 292.485C100.559 289.431 92.6614 282.164 89.5022 278.795C68.4407 278.268 57.4888 275.846 56.7516 271.423C56.2251 268.369 60.4374 264.473 69.4938 259.629C72.1265 259.313 74.7592 258.997 77.2865 258.681C74.5486 234.566 71.7052 210.345 68.9672 186.23C74.022 185.703 79.0768 185.282 84.1315 184.755Z" fill="#606060"/>
<path d="M304.013 546.802C302.012 563.967 300.222 577.867 298.958 586.292C281.858 624.329 483.407 645.396 555.487 611.881C564.438 567.758 571.599 515.104 572.968 455.5C574.021 410.113 571.388 368.938 567.176 332.712C557.382 326.288 542.218 317.653 522.21 311.756C501.885 305.753 485.879 305.227 465.87 304.279C450.917 303.542 431.329 302.699 406.793 307.017C391.945 309.65 370.146 315.126 345.609 327.447C333.288 351.773 326.443 372.413 322.652 385.997C309.489 433.491 313.596 462.45 304.013 546.802Z" fill="#EC615B"/>
<path opacity="0.16" d="M490.196 305.859C492.408 311.229 495.567 319.97 497.989 331.027C506.94 371.992 494.514 393.685 489.038 441.81C483.035 494.148 495.462 497.202 486.089 533.428C478.086 564.493 434.596 613.518 423.012 627.84C507.283 627.84 517.817 625.031 555.592 613.04C556.856 606.195 558.541 596.823 560.331 585.555C562.753 570.917 567.071 544.169 569.914 516.684C573.494 481.827 573.494 454.868 573.494 434.123C573.494 406.532 572.231 372.307 568.124 332.923C563.806 330.185 557.803 326.709 550.432 323.024C542.534 319.127 531.055 313.546 515.365 309.755C508.941 308.175 500.516 306.49 490.196 305.859Z" fill="#606060"/>
<path opacity="0.13" d="M567.07 333.976C563.701 348.824 558.751 371.781 553.907 400.214C542.534 466.873 544.745 487.408 533.793 518.895C526.106 541.01 493.158 596.108 458.827 628.542C507.283 628.542 527.649 618.008 554.539 611.881C563.174 572.602 567.492 538.588 569.703 512.261C573.915 463.188 572.441 424.54 571.388 396.212C570.335 371.044 568.65 349.772 567.07 333.976Z" fill="#606060"/>
<path d="M542.534 329.131C540.323 330.395 537.585 333.554 532.214 339.767C528.739 343.769 527.054 345.77 525.685 347.771C522.315 352.826 520.841 357.88 519.156 369.675C517.471 381.258 516.628 387.156 516.418 394.738C515.997 412.956 518.735 429.279 522.42 447.602C529.476 482.353 532.635 486.987 536.637 510.155C540.007 529.742 541.165 545.854 541.586 556.069C537.9 560.386 532.635 566.915 526.843 575.34C515.891 591.347 510.31 603.773 506.73 611.144C500.411 623.886 489.564 641.578 470.188 661.902C467.45 662.324 463.132 662.64 458.183 661.376C449.864 659.164 448.705 654.531 440.175 652.319C437.121 651.477 438.49 652.425 424.906 651.793C415.323 651.372 412.48 650.74 409.636 652.846C407.004 654.741 404.897 658.533 405.845 661.902C407.004 665.904 412.269 668.853 418.377 667.8C409.952 669.906 404.055 673.276 400.369 675.803C395.841 678.962 387.101 684.965 388.364 690.757C389.101 694.126 393.208 696.759 393.84 697.18C395.946 698.549 398.052 699.076 399.316 699.286C399.421 699.918 400.369 703.815 404.266 706.237C408.478 708.869 412.901 707.5 413.533 707.29C414.48 709.185 416.271 712.134 419.535 714.24C425.432 717.926 433.752 717.505 440.807 713.187C440.702 715.293 441.018 718.242 443.019 720.137C445.967 722.981 451.233 722.033 458.288 720.137C477.138 715.188 486.616 712.66 492.092 706.237C494.409 703.499 499.042 697.18 500.306 686.439C518.103 673.381 531.793 661.376 541.165 652.741C568.334 627.783 590.659 606.721 604.876 573.655C612.142 556.7 614.564 543.116 615.196 538.377C617.197 525.319 616.881 514.367 615.196 496.149C613.406 476.878 610.457 455.184 603.718 420.854C602.875 416.747 597.399 389.157 585.183 356.722C581.919 347.981 577.075 336.292 565.596 330.5C564.017 330.079 551.485 323.971 542.534 329.131Z" fill="white"/>
<path d="M541.586 327.868C518.313 344.506 513.68 377.573 514.628 404.11C515.786 437.282 526.106 468.98 533.267 501.098C537.479 519.948 540.533 539.009 540.112 558.385C540.112 560.386 543.271 560.386 543.271 558.385C544.219 518.474 530.318 480.774 522.526 442.126C518.524 422.013 516.102 401.267 518.735 380.732C521.051 362.198 527.37 341.979 543.166 330.606C544.746 329.447 543.166 326.709 541.586 327.868Z" fill="#161616"/>
<path d="M551.485 551.435C531.371 559.86 521.683 581.026 511.363 598.823C498.41 621.254 484.931 643.368 466.818 662.113C465.449 663.587 467.661 665.799 469.03 664.325C485.563 647.265 498.41 627.256 510.31 606.721C521.157 588.187 531.056 563.335 552.222 554.384C554.223 553.647 553.381 550.593 551.485 551.435Z" fill="#161616"/>
<path d="M541.165 332.185C554.434 323.34 569.072 333.976 576.127 345.454C583.183 356.827 587.922 369.991 592.134 382.628C600.98 409.27 605.718 437.071 609.088 464.873C612.353 492.042 617.092 521.212 612.037 548.381C606.982 575.34 589.291 597.981 571.915 618.41C552.117 641.578 529.581 662.113 504.834 679.805C503.149 680.963 504.729 683.701 506.414 682.543C529.897 665.799 551.485 646.422 570.546 624.834C588.764 604.089 608.141 580.605 614.354 553.015C620.883 523.845 615.617 492.252 612.142 462.977C608.562 433.386 603.191 403.689 593.187 375.467C588.343 361.882 582.972 346.297 572.863 335.66C564.438 326.815 550.643 322.181 539.691 329.447C537.901 330.606 539.48 333.344 541.165 332.185Z" fill="#161616"/>
<path d="M417.324 665.904C414.691 665.378 409.636 664.851 408.162 662.429C408.162 660.007 408.267 657.69 408.267 655.268C409.11 654.741 409.952 654.426 410.9 654.215C412.269 653.794 413.743 653.688 415.218 653.583C421.747 652.846 430.066 651.266 436.384 653.372C441.755 655.163 446.494 658.743 451.759 660.744C457.235 662.745 462.922 664.009 468.714 664.64C470.714 664.851 470.714 661.692 468.714 661.481C463.448 660.849 458.393 659.796 453.444 658.006C448.389 656.216 444.072 653.372 439.228 651.161C431.645 647.686 421.747 649.581 413.848 650.529C409.32 651.056 403.528 652.741 403.107 658.217C402.581 665.483 410.689 668.01 416.271 669.063C418.482 669.274 419.325 666.22 417.324 665.904Z" fill="#161616"/>
<path d="M431.961 667.168C424.8 664.535 417.429 665.799 410.479 668.642C404.371 671.064 397.315 673.802 392.892 678.752C390.154 681.7 384.994 689.388 386.258 693.811C387.627 698.444 394.788 700.971 399.105 700.129C401.106 699.708 400.264 696.654 398.263 697.075C391.945 698.339 388.68 692.968 390.891 688.124C391.523 686.65 392.26 685.281 392.998 683.912C395.63 679.699 399.421 677.383 403.739 675.276C412.269 671.064 421.536 666.852 431.119 670.327C433.014 670.959 433.857 667.905 431.961 667.168Z" fill="#161616"/>
<path d="M436.595 677.277C424.59 679.068 405.319 681.174 398.895 693.389C393.524 703.604 405.74 712.871 415.007 708.027C416.797 707.079 415.218 704.341 413.427 705.289C407.53 708.343 399.211 703.604 401.001 696.549C402.159 691.704 407.53 688.756 411.742 686.755C419.746 682.964 428.802 681.595 437.437 680.226C439.438 680.015 438.596 676.961 436.595 677.277Z" fill="#161616"/>
<path d="M507.361 678.12C500.938 680.858 498.726 686.86 496.831 693.179C495.146 698.971 493.04 703.709 487.669 706.974C483.246 709.607 478.086 710.976 473.242 712.661C468.082 714.451 462.922 716.346 457.762 718.136C455.445 718.979 453.023 720.032 450.601 720.664C449.337 721.085 448.073 721.296 446.81 721.401C442.808 719.821 441.65 717.399 443.545 714.345C445.651 710.133 451.127 706.553 454.813 703.92C458.92 701.077 463.238 698.865 467.871 697.18C469.767 696.548 468.924 693.495 467.029 694.126C461.553 696.022 456.498 698.76 451.864 702.13C447.968 704.973 443.229 708.343 440.807 712.661C439.228 715.504 438.912 719.295 441.018 721.928C443.65 725.192 447.863 724.666 451.443 723.612C458.393 721.612 465.238 718.663 472.189 716.241C477.875 714.24 483.983 712.555 489.248 709.501C493.25 707.185 496.199 704.025 497.989 699.708C500.622 693.389 500.832 684.228 508.204 681.068C510.099 680.436 509.257 677.383 507.361 678.12Z" fill="#161616"/>
<path d="M448.811 690.23C440.702 691.178 432.172 692.126 424.485 694.864C419.64 696.549 411.637 700.971 411.111 706.869C410.479 713.082 419.219 716.03 424.063 716.768C431.645 717.926 439.544 715.504 445.757 711.186C447.442 710.028 445.862 707.29 444.177 708.448C439.544 711.607 434.383 713.608 428.697 713.819C423.01 714.03 409.32 709.923 417.429 702.656C425.327 695.495 438.701 694.548 448.811 693.284C450.811 693.179 450.811 690.019 448.811 690.23Z" fill="#161616"/>
<path opacity="0.09" d="M551.275 329.237C543.482 334.818 559.383 365.884 570.335 396.423C581.814 428.12 597.926 472.771 591.502 520.159C584.762 569.864 555.487 605.879 537.795 627.572C519.682 649.792 501.359 665.378 487.564 675.592C425.854 690.651 412.901 700.024 413.322 706.026C413.533 708.659 416.481 712.134 419.64 713.819C427.854 718.242 437.964 712.555 439.438 711.713C439.438 714.24 439.859 720.348 443.651 722.349C446.389 723.718 449.442 722.349 452.812 720.98C470.293 713.819 472.294 717.399 483.878 710.344C488.195 707.711 491.355 705.71 494.514 701.814C499.99 695.074 501.254 687.492 501.57 683.385C511.784 676.014 524.211 666.431 537.585 654.426C557.382 636.734 578.023 618.095 595.504 588.714C603.191 575.866 609.825 564.493 613.195 547.749C616.144 532.69 614.775 522.054 612.458 501.098C605.613 436.756 608.035 441.81 606.14 431.069C602.243 409.692 600.769 412.535 588.448 368.201C588.343 367.885 585.499 357.459 578.549 345.559C574.337 338.399 571.599 335.555 568.65 333.554C564.017 330.079 555.066 326.604 551.275 329.237Z" fill="#606060"/>
<path opacity="0.1" d="M612.142 501.414C609.825 501.204 608.14 513.735 601.822 533.112C590.87 566.599 577.075 589.978 562.542 609.67C548.01 629.257 528.423 653.899 503.254 680.752C535.373 656.742 558.751 633.68 574.337 616.62C599.61 589.03 605.929 575.761 609.509 565.546C620.251 534.375 615.828 501.73 612.142 501.414Z" fill="#606060"/>
<path opacity="0.11" d="M444.809 719.084C444.282 717.294 451.864 713.714 467.029 706.342C479.876 700.129 490.302 694.864 497.462 691.283C496.62 696.654 494.514 703.499 488.933 706.974C487.353 707.922 486.3 708.238 483.983 708.975C470.188 713.292 468.187 717.083 458.393 719.084C453.128 720.243 445.23 720.769 444.809 719.084Z" fill="#606060"/>
<path opacity="0.1" d="M414.902 703.709C420.483 704.131 428.697 704.236 438.49 702.762C455.129 700.234 467.66 694.126 467.976 694.864C468.187 695.39 462.922 697.496 454.497 702.446C444.598 708.238 444.598 709.712 439.122 711.923C436.49 712.976 423.221 718.452 417.534 712.555C415.112 710.028 414.796 706.131 414.902 703.709Z" fill="#606060"/>
<path d="M278.95 149.267C277.897 154.111 277.686 159.06 277.897 168.748C278.107 177.594 278.739 196.971 286.953 220.665C291.376 233.512 297.168 250.256 312.016 267.527C312.016 267.527 333.078 291.853 364.249 301.646C372.884 304.384 379.729 305.121 386.89 303.647C395.104 302.068 401.001 298.066 404.265 295.433C406.056 298.276 408.583 302.91 409.847 309.123C411.848 318.706 409.004 322.918 412.269 330.29C413.006 331.975 415.849 337.977 422.378 341.242C429.013 344.506 435.542 342.927 441.228 341.558C445.441 340.505 454.813 337.661 462.184 329.237C464.712 326.288 468.713 321.76 468.819 315.547C468.819 311.44 467.134 308.386 466.397 307.017C464.607 303.752 462.184 294.801 457.34 276.899C454.076 264.894 454.497 255.311 455.234 236.25C455.655 226.562 456.708 213.715 459.762 198.656C461.869 199.814 465.87 201.499 470.609 200.657C478.928 199.182 483.035 190.863 484.931 186.967C485.457 185.914 494.303 167.064 483.562 153.795C482.509 152.531 473.979 142.316 464.396 145.265C457.446 147.371 454.708 154.953 454.286 156.217C452.075 153.584 449.864 150.53 447.652 146.95C442.281 137.999 439.754 129.469 438.596 123.045C417.324 123.993 400.58 121.571 389.101 119.254C365.407 114.41 358.141 108.302 337.29 108.092C324.548 107.881 309.384 107.776 296.641 117.99C283.373 128.837 279.898 144.844 278.95 149.267Z" fill="white"/>
<path d="M276.633 158.955C274.737 200.025 285.795 242.569 315.176 272.581C328.023 285.745 343.819 296.17 361.405 301.857C370.462 304.806 380.571 307.228 389.944 304.49C399.632 301.541 408.688 295.012 417.008 289.22C435.858 276.057 452.601 258.47 457.235 235.303C457.656 233.302 454.602 232.459 454.181 234.46C450.074 254.89 436.174 271.002 419.851 283.323C412.163 289.115 403.844 294.696 395.209 299.014C385.1 304.068 375.095 302.805 364.565 299.645C329.181 289.009 302.012 259.629 289.375 225.509C281.582 204.342 278.845 181.596 279.898 159.06C279.898 156.954 276.738 156.954 276.633 158.955Z" fill="#161616"/>
<path d="M404.266 297.539C407.635 306.701 409.847 316.073 411.005 325.867C411.216 327.868 414.375 327.868 414.164 325.867C413.006 315.863 410.795 306.174 407.319 296.802C406.582 294.801 403.528 295.644 404.266 297.539Z" fill="#161616"/>
<path d="M453.971 238.146C452.917 250.678 453.549 263.315 455.866 275.741C457.13 282.165 458.815 288.483 460.921 294.696C463.238 301.436 466.713 308.281 466.291 315.547C465.554 327.552 454.602 336.292 443.966 339.662C432.488 343.348 412.164 341.347 413.638 324.814C413.848 322.813 410.689 322.813 410.479 324.814C409.426 337.03 421.009 344.401 431.961 344.717C443.966 344.928 456.814 339.136 464.185 329.553C473.663 317.021 467.345 304.384 463.132 291.116C457.551 274.056 455.655 256.154 457.13 238.251C457.235 236.145 454.076 236.145 453.971 238.146Z" fill="#161616"/>
<path d="M407.846 297.118C422.694 289.325 435.12 277.847 443.861 263.63C444.914 261.945 442.176 260.261 441.123 262.051C432.593 275.951 420.588 286.903 406.161 294.485C404.476 295.433 406.056 298.066 407.846 297.118Z" fill="#161616"/>
<path d="M408.056 299.014C417.218 294.485 424.8 287.851 431.961 280.585C438.596 273.845 444.703 266.684 448.389 257.839C449.126 255.943 446.072 255.101 445.335 256.996C441.65 265.842 435.12 272.897 428.486 279.637C421.957 286.271 414.901 292.169 406.477 296.276C404.581 297.118 406.161 299.856 408.056 299.014Z" fill="#161616"/>
<path d="M409.004 300.909C427.222 290.8 441.755 275.425 450.39 256.469C451.233 254.679 448.495 252.994 447.652 254.89C439.228 273.319 425.116 288.378 407.425 298.171C405.634 299.119 407.319 301.857 409.004 300.909Z" fill="#161616"/>
<path d="M338.027 172.329C338.238 191.179 339.712 209.924 342.24 228.563C342.345 229.511 343.819 230.037 344.556 229.511C350.875 224.877 356.456 219.612 361.616 213.715C362.985 212.135 360.668 209.924 359.405 211.503C354.455 217.19 349.085 222.35 342.977 226.878C343.714 227.194 344.556 227.51 345.294 227.826C342.766 209.502 341.397 190.968 341.187 172.434C341.187 170.223 338.027 170.223 338.027 172.329Z" fill="#161616"/>
<path d="M313.807 196.76C311.279 195.497 309.278 193.601 308.12 190.968C307.172 188.968 305.382 181.385 310.016 182.649C312.648 183.386 314.754 187.493 315.492 189.81C315.913 191.074 316.334 192.653 316.018 194.022C316.123 195.497 315.386 196.55 313.807 197.076C313.069 196.55 312.543 195.918 312.016 195.181C310.753 193.601 308.541 195.813 309.805 197.392C313.069 201.604 318.124 200.973 319.072 195.391C320.02 189.705 317.071 183.702 312.543 180.438C307.804 177.068 304.118 180.016 303.908 185.387C303.697 191.284 307.172 196.655 312.332 199.288C314.017 200.446 315.597 197.708 313.807 196.76Z" fill="#161616"/>
<path d="M306.224 184.018C307.383 189.494 310.016 194.338 313.912 198.34C315.07 199.604 316.86 198.235 316.545 196.76C315.597 191.706 310.647 187.809 311.069 182.544C310.121 182.965 309.278 183.281 308.331 183.702C311.385 187.283 313.175 191.284 314.017 195.918C314.544 195.286 315.07 194.549 315.491 193.917C312.227 193.917 310.331 190.863 308.857 188.441C307.804 186.756 305.066 188.336 306.119 190.021C308.225 193.496 310.963 197.076 315.491 197.076C316.65 197.076 317.176 196.023 316.966 195.075C316.123 189.915 313.807 185.387 310.542 181.491C309.594 180.332 307.909 181.385 307.804 182.649C307.383 188.441 312.438 192.232 313.385 197.708C314.228 197.182 315.176 196.655 316.018 196.128C312.438 192.443 310.226 188.125 309.068 183.176C308.857 181.175 305.803 182.017 306.224 184.018Z" fill="#161616"/>
<path d="M391.102 187.599C388.575 186.335 386.574 184.439 385.415 181.807C384.468 179.806 382.678 172.224 387.311 173.487C389.944 174.225 392.05 178.332 392.787 180.648C393.208 181.912 393.629 183.492 393.314 184.861C393.419 186.335 392.682 187.388 391.102 187.914C390.365 187.388 389.838 186.756 389.312 186.019C388.048 184.439 385.837 186.651 387.1 188.23C390.365 192.443 395.42 191.811 396.367 186.23C397.315 180.543 394.367 174.54 389.838 171.276C385.1 167.906 381.414 170.855 381.203 176.225C380.993 182.123 384.468 187.493 389.628 190.126C391.313 191.284 392.892 188.546 391.102 187.599Z" fill="#161616"/>
<path d="M383.415 174.751C384.573 180.227 387.206 185.071 391.102 189.073C392.261 190.337 394.051 188.968 393.735 187.493C392.787 182.439 387.838 178.542 388.259 173.277C387.311 173.698 386.469 174.014 385.521 174.435C388.575 178.016 390.365 182.017 391.207 186.651C391.734 186.019 392.261 185.282 392.682 184.65C389.417 184.65 387.522 181.596 386.047 179.174C384.994 177.489 382.256 179.069 383.309 180.754C385.416 184.229 388.154 187.809 392.682 187.809C393.84 187.809 394.367 186.756 394.156 185.808C393.314 180.648 390.997 176.12 387.732 172.224C386.785 171.065 385.1 172.118 384.994 173.382C384.573 179.174 389.628 182.965 390.576 188.441C391.418 187.914 392.366 187.388 393.208 186.861C389.628 183.176 387.416 178.858 386.258 173.909C386.047 172.013 382.994 172.856 383.415 174.751Z" fill="#161616"/>
<path d="M292.324 164.641C294.957 154.532 307.804 152.215 313.912 160.745C315.07 162.43 317.808 160.85 316.65 159.166C309.068 148.529 292.745 150.952 289.375 163.799C288.743 165.8 291.797 166.537 292.324 164.641Z" fill="#161616"/>
<path d="M370.567 150.425C376.991 136.419 393.945 143.264 401.106 152.531C402.37 154.111 405.108 152.531 403.844 150.952C399.316 144.949 392.998 139.894 385.205 139.262C378.044 138.631 370.883 142.211 367.829 148.845C366.987 150.636 369.725 152.215 370.567 150.425Z" fill="#161616"/>
<path d="M333.394 255.416C326.759 243.201 342.345 244.359 350.032 243.622C358.141 242.885 366.039 240.357 373.095 236.25C380.677 231.933 385.521 225.193 392.155 219.928C394.999 217.611 399.211 214.978 403.107 217.085C406.372 218.875 407.635 223.508 407.951 226.773C408.478 231.722 407.214 236.777 405.424 241.411C400.369 254.995 390.892 266.263 376.886 270.897C360.984 276.057 342.45 269.738 333.394 255.416C332.341 253.732 329.603 255.311 330.656 256.996C338.133 268.896 352.244 276.373 366.25 275.846C380.571 275.425 394.261 267.106 402.159 255.416C408.794 245.518 417.64 224.351 406.056 215.084C399.632 209.924 391.839 215.716 387.101 220.349C379.518 227.826 372.358 234.355 362.037 237.83C356.456 239.726 350.769 240.463 344.872 240.673C340.976 240.779 336.974 240.779 333.394 242.674C327.181 246.044 327.602 251.52 330.656 256.996C331.604 258.786 334.342 257.207 333.394 255.416Z" fill="#161616"/>
<path d="M331.604 255.627C360.668 257.523 388.469 243.306 403.318 218.138C404.371 216.347 401.633 214.768 400.58 216.558C386.258 240.884 359.615 254.363 331.604 252.468C329.603 252.363 329.603 255.522 331.604 255.627Z" fill="#161616"/>
<path d="M452.18 245.307C444.914 268.264 428.907 287.43 407.741 299.014C405.95 299.961 407.53 302.699 409.32 301.752C431.119 289.747 447.652 269.949 455.129 246.149C455.761 244.254 452.812 243.411 452.18 245.307Z" fill="#161616"/>
<path d="M455.34 158.639C456.498 150.215 465.239 146.213 473.031 148.845C480.824 151.583 485.142 159.166 486.195 166.958C487.353 174.856 485.668 183.281 481.666 190.231C477.56 197.287 468.292 203.816 460.71 197.076C459.236 195.707 456.919 197.919 458.499 199.288C465.765 205.817 475.875 202.763 481.666 195.813C488.406 187.704 491.039 175.804 489.249 165.484C487.564 155.796 481.14 146.739 470.925 144.949C462.395 143.475 453.549 148.845 452.286 157.691C452.075 159.797 455.129 160.64 455.34 158.639Z" fill="#161616"/>
<path d="M431.961 147.476C432.488 150.32 432.909 156.112 437.121 158.639C441.544 161.272 447.863 158.955 452.602 156.638C452.812 156.112 456.498 146.739 465.765 145.16C473.242 143.896 478.823 148.53 480.613 149.899C487.037 155.164 488.301 162.535 489.038 166.748C490.512 174.962 488.406 181.385 487.353 185.071C486.405 188.23 485.141 192.021 481.772 195.918C480.403 197.497 478.086 200.13 474.4 201.71C467.976 204.342 461.553 201.71 459.657 200.867C457.762 202.447 455.234 204.764 453.128 208.133C453.128 208.133 452.917 208.449 452.707 208.765C449.442 214.241 452.286 226.352 452.707 233.091C452.917 237.093 452.496 242.99 449.021 250.362C452.917 252.152 465.66 257.312 481.034 253.31C485.457 252.152 496.831 249.098 505.045 238.146C514.206 225.93 512.837 212.556 512.416 209.397C517.681 204.658 520.314 199.919 521.578 196.971C522.42 195.075 528.107 181.701 522.42 175.804C520.103 173.487 518.103 174.435 516.207 172.434C513.68 169.907 512.943 163.799 520.63 148.319C522.315 148.319 523.263 147.792 523.894 147.371C526.843 144.949 525.685 137.683 520.841 129.364C527.37 125.783 533.899 122.203 540.428 118.728C535.373 118.306 528.107 117.043 521.472 112.409C511.679 105.669 510.415 96.7183 503.886 87.6619C498.831 80.6063 489.775 72.0764 471.767 66.3898C475.874 63.5465 481.666 59.1236 487.669 52.9105C492.092 48.277 501.78 37.1144 499.779 34.6923C498.41 33.1127 492.724 36.4826 485.668 39.1153C472.61 43.8541 461.658 43.1169 444.703 41.8532C421.852 40.063 419.43 36.0613 400.369 33.7446C387.837 32.165 364.143 29.5323 337.817 38.7993C313.069 47.5398 298.116 62.5988 291.587 69.2331C285.584 75.3409 270.631 91.9795 262.627 117.253C258.731 129.469 255.045 142.106 261.574 153.479C265.681 160.535 272.105 164.326 276.422 166.326C276.001 159.376 276.106 145.897 284.32 133.155C296.536 114.305 318.335 109.987 334.341 106.828C347.084 104.3 376.148 98.6139 401.949 114.621C411.637 120.623 429.223 131.47 431.961 147.476Z" fill="#5222D0"/>
<path d="M331.814 255.1C333.183 257.733 335.921 261.84 340.555 265.631C341.608 266.474 346.557 270.37 354.139 272.476C365.934 275.635 376.254 272.371 380.255 270.791C392.471 265.947 398.579 257.101 401.106 253.205C403.844 249.098 409.004 241.305 408.688 230.459C408.478 223.93 406.372 218.875 404.897 215.926C403.844 216.979 402.37 218.559 400.58 220.454C394.472 226.983 390.576 231.933 389.312 233.513C381.624 242.674 370.041 247.834 366.355 249.414C352.454 255.522 339.502 255.732 331.814 255.1Z" fill="black"/>
<path d="M290.112 74.0774C284.952 79.2374 281.688 84.6081 279.792 87.8726C273.474 98.5087 271.262 107.776 269.683 114.41C267.787 122.729 265.786 135.261 267.05 150.741C267.366 154.427 269.577 157.375 272.631 158.323C274.738 158.955 276.528 158.429 277.37 158.113C278.002 154.111 279.582 148.108 283.478 141.79C290.323 130.522 300.222 125.257 306.014 122.308C317.808 116.306 328.234 115.358 335.184 114.726C351.085 113.462 362.985 116.832 365.618 117.569C376.886 120.834 385.1 126.099 390.576 129.574C400.79 135.998 402.265 139.263 411.742 143.37C422.273 148.003 428.697 147.687 430.803 147.477C434.067 147.266 440.07 146.739 445.651 142.316C450.706 138.315 452.601 133.155 453.339 130.838C463.238 135.156 470.504 139.684 475.348 143.054C486.826 150.952 493.25 158.218 508.73 166.958C511.363 168.433 513.68 169.591 515.049 170.328C516.734 163.378 518.419 156.428 520.103 149.583C517.892 148.003 514.628 145.686 510.521 142.843C495.672 132.523 485.563 125.573 472.399 118.728C468.608 116.727 463.132 114.094 456.182 111.146C457.656 105.459 459.552 95.0335 455.866 83.3444C454.497 78.9215 452.286 72.1818 446.072 66.7059C442.176 63.336 438.28 61.7564 435.963 61.0193C409.531 51.5416 381.414 51.1204 381.414 51.1204C366.039 50.9098 345.399 50.8045 320.967 57.86C305.909 62.1776 297.063 67.1271 290.112 74.0774Z" fill="white"/>
<path d="M278.845 157.902C286.216 117.674 341.818 107.249 373.937 121.781C382.783 125.783 391.102 130.838 399.316 135.893C406.477 140.316 413.849 144.844 422.062 146.845C434.173 149.793 449.232 146.002 453.549 133.155C454.181 131.259 451.127 130.417 450.495 132.312C447.547 141.158 437.859 145.16 429.118 144.844C419.324 144.423 410.584 139.052 402.475 134.208C387.206 124.941 371.41 114.621 353.086 112.83C322.336 109.882 282.214 122.835 275.896 157.165C275.369 158.955 278.423 159.903 278.845 157.902Z" fill="#161616"/>
<path d="M275.685 155.164C274.106 154.848 272.526 154.532 270.841 154.216C270.525 153.374 270.104 152.531 269.788 151.689C269.367 150.636 269.156 149.477 268.946 148.319C268.524 145.897 268.419 143.369 268.314 140.842C268.209 135.998 268.419 131.048 268.84 126.204C269.578 115.779 271.473 105.354 276.001 95.8759C284.321 78.2896 301.17 66.4952 319.177 60.1767C339.08 53.2264 360.774 51.7521 381.73 52.2787C401.843 52.8052 424.485 54.5954 441.966 65.4421C453.549 72.603 454.918 86.2929 455.234 98.9298C455.55 111.145 453.655 123.15 449.758 134.629C449.126 136.524 452.18 137.367 452.812 135.471C456.814 123.677 458.815 111.356 458.394 98.9298C458.078 88.8203 457.446 75.5516 450.074 67.8641C442.597 59.9661 430.487 56.0697 420.167 53.6477C407.951 50.8044 395.209 49.646 382.678 49.2247C338.343 47.7504 280.319 57.9653 268.314 108.513C265.365 120.623 263.996 134.629 265.576 147.055C266.102 150.952 267.155 156.112 270.525 158.639C273.263 160.64 277.054 160.008 278.423 156.849C279.266 154.953 276.528 153.374 275.685 155.164Z" fill="#161616"/>
<path d="M271.368 152.531C278.634 125.678 302.223 105.354 329.287 100.509C344.135 97.8768 359.615 99.667 373.621 105.143C388.154 110.724 398.684 120.413 410.057 130.733C420.272 140.105 434.067 148.214 447.968 141.79C449.758 140.947 448.179 138.209 446.388 139.052C428.907 147.161 414.27 129.996 402.897 119.57C392.576 110.198 380.15 103.247 366.671 99.4564C340.344 92.0849 312.016 97.5609 291.271 115.568C280.319 125.151 272.21 137.683 268.419 151.689C267.787 153.69 270.841 154.532 271.368 152.531Z" fill="#161616"/>
<path d="M452.496 130.627C473.663 143.475 494.303 157.165 514.522 171.381C516.207 172.54 517.787 169.802 516.102 168.643C495.883 154.321 475.243 140.737 454.076 127.889C452.391 126.836 450.811 129.574 452.496 130.627Z" fill="#161616"/>
<path d="M456.393 111.04C477.875 123.045 498.726 136.209 518.735 150.53C520.42 151.689 521.999 148.951 520.314 147.792C500.201 133.471 479.455 120.307 457.972 108.302C456.182 107.249 454.603 109.987 456.393 111.04Z" fill="#161616"/>
<path d="M518.103 148.53C515.891 155.269 514.417 162.009 513.574 169.064C513.364 171.065 516.523 171.065 516.734 169.064C517.471 162.325 518.945 155.796 521.156 149.372C521.788 147.476 518.734 146.634 518.103 148.53Z" fill="#161616"/>
<path d="M326.97 101.036C344.03 84.7133 361.195 68.6013 378.57 52.4893C380.045 51.1203 377.833 48.9088 376.359 50.2778C359.089 66.2845 341.818 82.5018 324.758 98.8245C323.284 100.193 325.496 102.405 326.97 101.036Z" fill="#161616"/>
<path d="M369.725 102.405C385.1 87.1354 400.474 71.8659 415.849 56.491C417.324 55.0167 415.007 52.8052 413.638 54.2795C398.263 69.5491 382.888 84.8186 367.513 100.194C366.039 101.668 368.25 103.879 369.725 102.405Z" fill="#161616"/>
<path opacity="0.15" d="M301.17 124.098C300.643 119.886 300.117 115.779 299.59 111.567C304.54 108.197 312.754 103.353 323.6 100.615C346.873 94.6122 366.46 101.984 375.411 105.354C382.151 107.881 390.154 110.83 398.474 117.885C404.897 123.361 404.792 125.678 412.585 131.996C419.746 137.893 426.696 143.369 435.647 142.948C441.018 142.738 445.23 140.421 447.652 138.736C449.969 135.471 452.18 132.102 454.497 128.837C456.919 129.153 472.083 131.47 479.034 144.001C480.087 145.792 479.771 146.529 482.193 153.374C486.511 165.695 487.669 166.011 488.511 170.118C488.722 171.065 490.933 184.439 481.666 193.18C474.505 200.025 464.922 199.604 462.816 199.498C459.762 207.923 459.236 215.189 459.131 219.928C459.131 227.194 459.025 236.04 464.922 243.938C467.029 246.781 471.767 253.205 480.087 253.837C490.091 254.574 496.725 246.255 497.357 245.518C483.457 248.15 469.451 250.783 455.55 253.31C455.445 264.473 457.13 273.108 458.709 278.9C462.5 293.222 467.976 299.435 467.555 311.335C467.345 318.706 464.817 324.709 462.816 328.605C456.393 310.597 449.864 292.695 443.44 274.688C436.49 280.058 429.539 285.534 422.484 290.905C425.222 285.008 428.065 279.005 430.803 273.108C434.383 257.523 435.121 244.043 435.015 233.934C434.805 219.085 430.803 204.342 423.01 174.856C418.271 157.165 415.007 147.687 406.266 139.789C403.212 137.051 399.737 135.05 392.682 130.943C377.202 121.992 369.514 117.464 360.247 115.252C340.976 110.724 323.916 115.884 315.807 118.412C309.594 120.202 304.645 122.308 301.17 124.098Z" fill="#606060"/>
<path opacity="0.13" d="M337.817 171.592C335.5 181.701 333.499 192.864 332.025 205.079C331.288 211.819 330.761 218.243 330.445 224.456C334.973 225.509 339.502 226.562 344.03 227.615C341.924 208.976 339.923 190.336 337.817 171.592Z" fill="#606060"/>
<path opacity="0.09" d="M449.864 186.124C448.495 193.601 446.704 201.394 444.388 209.502C433.646 246.676 415.744 275.425 399.421 296.17C401.528 295.223 436.068 278.795 447.126 253.942C450.074 247.413 452.496 241.937 452.602 234.25C452.812 224.351 449.126 220.56 451.654 213.188C454.181 206.133 459.131 205.185 459.447 199.919C459.763 194.338 454.497 189.494 449.864 186.124Z" fill="#606060"/>
<path opacity="0.1" d="M309.068 113.146C308.436 117.674 313.596 121.781 316.229 123.888C330.972 135.787 344.346 125.257 370.357 130.522C392.366 135.05 396.578 145.476 419.324 145.792C427.328 145.897 433.857 144.738 438.174 143.791C435.121 143.159 430.487 141.79 425.432 139.157C416.692 134.629 411.532 128.942 409.636 126.942C399.421 116.095 381.098 105.038 367.829 100.931C342.029 92.822 310.542 102.931 309.068 113.146Z" fill="#606060"/>
</svg>
